# Blender 4.0.1
# www.blender.org
mtllib Camcollision.mtl
o part253
v -191.088226 69.488121 -29.354847
v -150.142044 66.288124 -29.354843
v -175.415192 57.651569 -59.617180
v -213.161392 63.346172 -34.348286
v -109.195869 66.546181 -29.354839
v -121.668999 59.251572 -59.617176
v -83.793831 61.746185 -21.896912
v -118.638908 -0.000017 -83.721764
v -68.688148 -0.000008 -25.911659
v -178.731705 -0.000022 -83.721771
v -225.224579 -0.000023 -45.020943
v -87.122787 63.346188 13.991364
v -72.715210 -0.000005 12.967715
v -247.628403 -0.000021 10.567700
v -234.847412 59.251568 11.591352
v -2.604265 -0.000007 -87.050308
v 6.827394 62.668812 -68.448044
v 47.835747 53.668468 -95.516212
v 42.504677 -0.000005 -119.439522
v -22.635300 -0.000004 -33.312691
v -5.943497 62.668812 -26.579212
v 2.934740 0.000001 14.023042
v 17.231144 62.668816 12.089591
v 47.835743 62.755661 -65.248039
v 47.835743 62.755661 -26.579206
v -191.088226 66.288124 11.591354
v -150.142044 64.688118 11.591358
v -109.195869 61.746181 11.591362
v 47.835739 59.468819 12.089594
vn -0.0865 0.9874 -0.1322
vn -0.1348 0.7297 -0.6703
vn 0.0252 0.9935 -0.1114
vn -0.0866 0.9874 -0.1322
vn -0.3530 0.7970 -0.4901
vn -0.2003 0.6706 -0.7142
vn 0.0979 0.9934 -0.0595
vn 0.0604 0.8784 -0.4741
vn 0.4214 0.8227 -0.3816
vn 0.0979 0.9934 -0.0594
vn 0.2016 0.8079 -0.5538
vn 0.9701 0.2255 0.0901
vn 0.8514 0.2753 -0.4464
vn 0.9568 0.2405 -0.1634
vn 0.9705 0.2191 0.1005
vn 0.3753 0.3507 -0.8580
vn 0.9568 0.2404 -0.1634
vn 0.7543 0.4785 -0.4494
vn 0.3430 0.5966 -0.7255
vn -0.8977 0.2164 -0.3838
vn -0.6977 0.2788 -0.6599
vn -0.8012 0.2322 -0.5516
vn -0.8929 0.1996 -0.4037
vn -0.3177 0.3813 -0.8682
vn -0.2004 0.6706 -0.7143
vn -0.6944 0.4403 -0.5691
vn -0.0139 0.9978 0.0649
vn 0.0347 0.9973 0.0648
vn -0.8526 0.1936 0.4853
vn -0.9670 0.2487 -0.0546
vn -0.9396 0.2371 0.2470
vn -0.8392 0.2069 0.5029
vn -0.6699 0.3278 -0.6661
vn -0.5377 0.3872 -0.7489
vn -0.3695 0.6190 -0.6931
vn -0.6764 0.5290 -0.5124
vn 0.0092 0.9893 -0.1453
vn -0.1311 0.9388 -0.3185
vn -0.3694 0.6190 -0.6931
vn 0.0511 0.9978 0.0427
vn -0.0016 1.0000 0.0002
vn 0.0246 0.9995 0.0212
vn 0.1036 0.9910 0.0842
vn 0.0524 0.9968 0.0606
vn 0.1209 0.9885 -0.0905
vn -0.0667 0.9965 -0.0506
vn -0.2098 0.9775 0.0201
vn -0.2103 0.9485 -0.2370
vn 0.2015 0.8079 -0.5538
vn -0.8108 0.2915 -0.5076
vn 0.0056 0.9953 -0.0969
vt 0.000000 0.000000
vt 0.000000 1.000000
vt 1.000000 1.000000
vt 1.000000 0.000000
s 1
usemtl Inside
f 1/1/1 2/3/3 3/2/2
f 1/1/4 3/3/6 4/2/5
f 5/1/7 6/3/8 2/2/3
f 7/1/9 6/3/11 5/2/10
f 12/1/12 13/4/15 9/3/14 7/2/13
f 8/1/16 6/4/19 7/3/18 9/2/17
f 14/1/20 15/4/23 4/3/22 11/2/21
f 11/1/21 4/4/26 3/3/25 10/2/24
f 26/1/27 27/4/28 2/3/3 1/2/1
f 22/1/29 23/4/32 21/3/31 20/2/30
f 16/1/33 17/4/36 18/3/35 19/2/34
f 24/1/37 18/3/39 17/2/38
f 23/1/40 29/4/43 25/3/42 21/2/41
f 3/1/2 2/3/3 6/2/8
f 28/1/44 12/4/46 7/3/45 5/2/7
f 27/1/28 28/4/44 5/3/7 2/2/3
f 15/1/47 26/4/27 1/3/1 4/2/48
f 8/1/16 10/4/24 3/3/25 6/2/49
f 20/1/30 21/4/31 17/3/50 16/2/33
f 25/1/42 24/4/37 17/3/51 21/2/41
o part254
v 139.527344 62.668827 15.289602
v 148.052399 58.801929 -28.179199
v 129.852219 62.668823 -26.579201
v 42.504677 -0.000005 -119.439522
v 47.835747 53.668468 -95.516212
v 88.843971 53.668472 -95.516212
v 87.613686 -0.000001 -119.439514
v -2.604265 -0.000007 -87.050308
v 6.827394 62.668812 -68.448044
v -22.635300 -0.000004 -33.312691
v -5.943497 62.668812 -26.579212
v 88.843964 56.355667 12.089598
v 88.843964 56.355663 -26.579203
v 2.934740 0.000001 14.023042
v 17.231144 62.668816 12.089591
v 139.431351 62.668831 49.062412
v 88.843964 59.468811 41.158417
v 9.325495 0.000005 56.558723
v 23.818546 62.668823 50.758408
v 88.843971 62.755665 -65.248039
v 128.252228 62.668823 -68.448029
v 131.122803 0.000005 -90.442245
v 47.835739 59.468819 12.089594
v 47.835743 62.755661 -26.579206
v 47.835735 59.468822 50.758411
v 159.757385 0.000012 -30.112671
v 150.332748 0.000014 17.223055
v 150.236771 0.000017 54.862732
v 47.835743 62.755661 -65.248039
vn -0.0153 0.9999 -0.0062
vn -0.0038 1.0000 -0.0041
vn 0.2054 0.9783 -0.0275
vn -0.6699 0.3278 -0.6661
vn -0.1859 0.4154 -0.8904
vn -0.2244 0.6852 -0.6930
vn -0.6764 0.5290 -0.5124
vn 0.6559 0.2882 -0.6977
vn 0.6612 0.4848 -0.5725
vn 0.1604 0.7016 -0.6943
vn 0.2712 0.3867 -0.8814
vn -0.9027 0.2069 0.3773
vn -0.9670 0.2487 -0.0546
vn -0.9396 0.2371 0.2470
vn -0.9346 0.2261 0.2745
vn -0.0851 0.9949 -0.0535
vn 0.0097 0.9974 -0.0710
vn -0.0497 0.9983 -0.0308
vn 0.0788 0.9969 -0.0076
vn 0.1320 0.9910 -0.0225
vn 0.0847 0.9963 0.0157
vn 0.0857 0.9963 0.0104
vn -0.8108 0.2915 -0.5076
vn -0.0015 0.9980 -0.0638
vn 0.1237 0.9685 -0.2162
vn 0.0136 0.9981 0.0600
vn 0.0126 0.9994 -0.0323
vn 0.0292 0.9925 -0.1188
vn 0.0679 0.9973 0.0282
vn 0.9731 0.1935 -0.1253
vn 0.9718 0.1977 -0.1286
vn 0.7842 0.2381 -0.5730
vn 0.6559 0.2881 -0.6977
vn -0.0016 1.0000 0.0002
vn 0.0056 0.9953 -0.0969
vn 0.9765 0.1771 0.1231
vn 0.9829 0.1716 0.0661
vn -0.9608 0.2305 0.1540
vn -0.9578 0.2366 0.1631
vn -0.1311 0.9388 -0.3185
vn 0.9854 0.1701 0.0026
vt 0.000000 0.000000
vt 0.000000 1.000000
vt 1.000000 1.000000
vt 1.000000 0.000000
s 1
usemtl Inside
f 30/5/52 31/7/54 32/6/53
f 37/5/55 38/8/58 34/7/57 33/6/56
f 51/5/59 36/8/62 35/7/61 50/6/60
f 43/5/63 44/8/66 40/7/65 39/6/64
f 45/5/67 30/8/52 41/7/69 46/6/68
f 54/5/70 52/8/73 44/7/72 48/6/71
f 39/5/64 40/8/65 38/7/74 37/6/55
f 49/5/75 50/7/76 35/6/61
f 41/5/69 30/8/52 32/7/53 42/6/77
f 31/5/54 50/7/78 32/6/53
f 58/5/79 49/8/75 35/7/61 34/6/57
f 58/5/79 53/8/80 42/7/77 49/6/75
f 42/5/77 32/8/53 50/7/78 49/6/75
f 33/5/56 34/8/57 35/7/61 36/6/62
f 55/5/81 51/8/84 50/7/83 31/6/82
f 53/5/80 58/8/79 38/7/86 40/6/85
f 30/5/87 56/8/88 55/7/81 31/6/82
f 44/5/72 52/8/73 53/7/80 40/6/85
f 47/5/89 48/8/90 44/7/66 43/6/63
f 52/5/73 41/8/69 42/7/77 53/6/80
f 46/5/68 41/8/69 52/7/73 54/6/70
f 58/5/79 34/7/57 38/6/91
f 56/5/88 30/8/87 45/7/92 57/6/92
o part255
v -87.122787 63.346188 13.991364
v -72.715210 -0.000005 12.967715
v -68.688148 -0.000008 -25.911659
v -83.793831 61.746185 -21.896912
v -87.122795 61.298889 65.337563
v -72.715218 -0.000001 67.961227
v -109.195877 59.251583 98.283768
v -102.992462 -0.000000 118.392982
v -150.142059 57.651585 118.756866
v -150.285355 -0.000002 142.039413
v -191.088242 59.251579 98.283760
v -197.578186 -0.000008 118.392975
v -213.161392 63.346180 52.537560
v -226.340515 -0.000016 53.561214
v -234.847412 59.251568 11.591352
v -247.628403 -0.000021 10.567700
v -213.161392 63.346172 -34.348286
v -225.224579 -0.000023 -45.020943
v -191.088226 66.288124 11.591354
v -191.088226 69.488121 -29.354847
v -150.142059 64.946190 93.483772
v -150.142044 60.146187 52.537563
v -191.088226 66.546181 52.537560
v -150.142044 64.688118 11.591358
v -150.142044 66.288124 -29.354843
v -109.195869 61.746181 11.591362
v -109.195869 66.546181 -29.354839
v -109.195877 66.546188 52.537567
vn -0.9676 0.2224 -0.1196
vn -0.9020 0.2330 -0.3635
vn -0.8977 0.2163 -0.3838
vn -0.9627 0.2076 0.1734
vn 0.9725 0.2244 0.0630
vn 0.9695 0.2320 0.0796
vn 0.9701 0.2255 0.0902
vn 0.9740 0.2234 0.0365
vn -0.8796 0.2089 0.4275
vn -0.5905 0.3199 0.7410
vn -0.7633 0.2689 0.5875
vn -0.8847 0.1883 0.4264
vn 0.0990 0.6842 0.7225
vn 0.5373 0.6417 0.5473
vn 0.5730 0.3193 0.7548
vn -0.1489 0.3677 0.9179
vn 0.7045 0.2754 0.6541
vn 0.9536 0.2297 0.1945
vn 0.9003 0.2408 0.3627
vn 0.5730 0.3194 0.7548
vn -0.4010 0.7474 0.5297
vn -0.7633 0.2689 0.5874
vn 0.0025 0.9999 0.0100
vn 0.0724 0.9933 0.0903
vn 0.0429 0.9985 0.0326
vn 0.0282 0.9987 -0.0431
vn 0.0380 0.9993 0.0035
vn -0.0027 0.9997 0.0243
vn 0.0611 0.9909 0.1203
vn 0.0380 0.9945 0.0979
vn 0.0428 0.9956 0.0830
vn 0.0368 0.9980 0.0520
vn -0.0194 0.9991 0.0375
vn -0.0217 0.9990 0.0398
vn -0.2699 0.8130 0.5159
vn -0.1484 0.9879 0.0452
vn -0.1928 0.9812 0.0085
vn -0.2601 0.9649 -0.0368
vn -0.1149 0.9926 0.0397
vn 0.1457 0.9442 0.2955
vn 0.1457 0.9442 0.2954
vn 0.1762 0.9795 0.0976
vt 0.000000 0.000000
vt 0.000000 1.000000
vt 1.000000 1.000000
vt 1.000000 0.000000
s 1
usemtl Inside
f 74/9/93 73/12/96 75/11/95 76/10/94
f 59/9/97 60/12/100 61/11/99 62/10/98
f 71/9/101 72/12/104 70/11/103 69/10/102
f 73/9/96 74/12/93 72/11/104 71/10/101
f 67/9/105 68/12/108 66/11/107 65/10/106
f 65/9/109 66/12/112 64/11/111 63/10/110
f 69/9/113 70/12/114 68/11/108 67/10/105
f 84/9/115 59/12/118 62/11/117 85/10/116
f 80/9/119 79/12/122 65/11/121 86/10/120
f 82/9/123 84/12/115 85/11/116 83/10/124
f 80/9/119 82/12/123 77/11/126 81/10/125
f 79/9/122 80/12/119 81/11/125 69/10/127
f 71/9/128 81/12/125 77/11/126 73/10/129
f 80/9/119 86/12/120 84/11/115 82/10/123
f 63/9/110 64/12/111 60/11/100 59/10/97
f 73/9/129 77/12/126 78/11/131 75/10/130
f 69/9/127 81/11/125 71/10/128
f 67/9/105 79/11/122 69/10/127
f 67/9/105 65/11/132 79/10/122
f 65/9/133 63/11/134 86/10/120
f 86/9/120 63/12/134 59/11/118 84/10/115
f 77/9/126 82/12/123 83/11/124 78/10/131
o part256
v 139.527344 62.668827 15.289602
v 148.052399 58.801929 -28.179199
v 129.852219 62.668823 -26.579201
v 143.096130 92.401939 89.630615
v 130.023361 96.268829 56.025177
v 90.794250 102.668808 47.783337
v 90.794250 102.668816 88.349335
v 130.512512 96.268829 119.469063
v 90.794243 96.868492 139.443192
v 88.843964 56.355667 12.089598
v 88.843964 56.355663 -26.579203
v 139.431351 62.668831 49.062412
v 88.843964 59.468811 41.158417
v 2.934740 0.000001 14.023042
v 17.231144 62.668816 12.089591
v -5.943497 62.668812 -26.579212
v -22.635300 -0.000004 -33.312691
v 9.325495 0.000005 56.558723
v 23.818546 62.668823 50.758408
v -7.589561 0.000008 108.694412
v 7.443712 58.801929 95.827225
v 41.435734 59.468826 89.427223
v 47.835735 59.468822 50.758411
v 47.835739 59.468819 12.089594
v 47.835743 62.755661 -26.579206
v 57.954845 96.268829 124.747894
v 51.554852 96.268829 88.349335
v 57.954853 96.268829 57.383335
v 22.531685 58.801937 129.696030
v 47.835728 59.468830 136.480011
v 42.504650 0.000016 168.685303
v 15.150168 0.000014 161.901337
v 87.613663 0.000022 191.977051
v 88.843948 53.668491 154.830780
v 150.332748 0.000014 17.223055
v 159.757385 0.000012 -30.112671
v 150.236771 0.000017 54.862732
v 165.387222 0.000022 103.894424
v 155.358047 58.801945 91.027229
v 140.914795 0.000025 162.093384
v 139.644211 62.668839 129.888016
vn -0.0153 0.9999 -0.0062
vn -0.0249 0.9997 -0.0061
vn 0.2036 0.9779 -0.0471
vn -0.0180 0.9995 0.0253
vn -0.1610 0.9870 -0.0021
vn -0.1762 0.9842 -0.0166
vn 0.0510 0.9985 0.0188
vn 0.9560 0.2015 -0.2130
vn 0.9554 0.2663 0.1273
vn 0.9356 0.3377 -0.1031
vn 0.6375 0.2578 -0.7260
vn 0.0847 0.9963 0.0157
vn -0.0016 1.0000 0.0010
vn 0.0855 0.9947 0.0565
vn 0.0856 0.9963 0.0103
vn 0.0097 0.9974 -0.0710
vn 0.0696 0.9973 0.0213
vn -0.0497 0.9983 -0.0308
vn -0.9751 0.2216 0.0016
vn -0.9027 0.2069 0.3773
vn -0.9346 0.2261 0.2745
vn -0.9663 0.2026 -0.1588
vn -0.7063 0.4038 0.5814
vn -0.9683 0.2335 -0.0893
vn -0.9472 0.2810 0.1544
vn -0.4737 0.4643 0.7483
vn -0.2861 0.4951 0.8204
vn -0.3954 0.6790 0.6186
vn -0.4982 0.4483 0.7422
vn -0.9592 0.2726 -0.0749
vn -0.7247 0.3101 -0.6154
vn -0.8280 0.2978 -0.4750
vn -0.9592 0.2808 0.0334
vn 0.0259 0.9993 0.0282
vn 0.1332 0.9905 0.0337
vn 0.0015 0.9936 0.1128
vn 0.1785 0.9839 0.0033
vn -0.1149 0.9909 0.0706
vn -0.0851 0.9949 -0.0535
vn 0.0310 0.9985 0.0457
vn 0.1319 0.9897 0.0549
vn -0.0219 0.9998 0.0028
vn -0.0965 0.9410 0.3243
vn -0.0273 0.9996 0.0037
vn -0.6304 0.4322 0.6448
vn -0.1328 0.4498 0.8832
vn 0.1247 0.5327 0.8371
vn 0.9765 0.1771 0.1231
vn 0.9670 0.1868 0.1731
vn 0.9666 0.1791 0.1834
vn 0.9829 0.1716 0.0661
vn 0.5944 0.3853 0.7059
vn 0.7915 0.2984 0.5333
vn 0.9770 0.1549 -0.1466
vn 0.9826 0.1609 -0.0930
vn 0.1470 0.3564 0.9227
vn 0.7700 0.3686 0.5208
vn -0.8654 0.1803 0.4675
vn -0.8526 0.1936 0.4853
vn -0.6133 0.3699 0.6979
vn 0.0461 0.1803 -0.9825
vn 0.1353 0.2372 -0.9620
vn 0.1803 0.1883 -0.9654
vn -0.1087 0.1880 -0.9761
vn -0.7194 0.4037 0.5652
vn -0.6134 0.3699 0.6978
vn -0.2714 0.2051 -0.9404
vn -0.8280 0.2979 -0.4750
vn 0.1494 0.9872 0.0555
vt 0.000000 0.000000
vt 0.000000 1.000000
vt 1.000000 1.000000
vt 1.000000 0.000000
s 1
usemtl Inside
f 87/13/135 88/15/137 89/14/136
f 93/13/138 92/16/141 114/15/140 113/14/139
f 98/13/142 91/16/145 90/15/144 125/14/143
f 101/13/146 110/16/149 111/15/148 102/14/147
f 99/13/150 96/16/152 110/15/149 109/14/151
f 104/13/153 105/16/156 101/15/155 100/14/154
f 118/13/157 115/16/160 107/15/159 106/14/158
f 117/13/161 116/16/163 115/15/162 118/14/157
f 108/13/164 113/16/167 114/15/166 109/14/165
f 96/13/152 87/16/135 89/15/136 97/14/168
f 110/13/149 96/16/152 97/15/168 111/14/148
f 94/13/169 90/16/171 93/15/138 95/14/170
f 112/13/172 95/16/170 93/15/138 113/14/139
f 98/13/173 87/16/135 96/15/152 99/14/150
f 107/13/174 108/16/176 109/15/151 105/14/175
f 115/13/177 116/16/178 108/15/176 107/14/174
f 117/13/161 119/16/181 120/15/180 116/14/179
f 105/13/156 104/16/153 106/15/158 107/14/159
f 109/13/151 110/16/149 101/15/146 105/14/175
f 87/13/182 121/16/185 122/15/184 88/14/183
f 119/13/181 126/16/187 127/15/186 120/14/180
f 121/13/185 87/16/182 98/15/142 123/14/188
f 124/13/189 123/16/188 98/15/142 125/14/143
f 127/13/186 94/16/191 95/15/190 120/14/180
f 125/13/143 90/16/144 94/15/191 127/14/186
f 126/13/187 124/16/189 125/15/143 127/14/186
f 100/13/154 101/16/155 102/15/193 103/14/192
f 120/13/180 95/16/190 112/15/194 116/14/179
f 99/13/195 92/16/198 91/15/197 98/14/196
f 116/13/199 112/16/200 113/15/167 108/14/164
f 109/13/201 114/16/202 92/15/198 99/14/195
f 90/13/171 91/16/203 92/15/141 93/14/138
o part257
v 60.000031 -0.000018 -312.800018
v 84.800026 -0.000014 -289.600006
v 113.552055 47.999989 -329.376007
v 56.400028 47.999981 -351.184052
v -9.023974 47.999977 -351.936035
v -9.599973 -0.000025 -313.600006
v 160.928040 47.999996 -283.504089
v 104.000031 -0.000011 -262.400024
v -89.599983 -0.000026 -244.000031
v -84.223999 47.999973 -282.752014
v -142.399994 -0.000028 -210.400024
v -142.399979 79.999962 -267.200043
v -214.399979 79.999962 -267.200043
v -214.399994 -0.000035 -210.400024
v -264.800018 -0.000032 -112.000031
v -297.040009 47.999969 -105.280067
v -318.400024 79.999962 -52.000038
v -267.200012 -0.000027 -52.000027
v -333.600006 79.999969 3.199965
v -285.600006 -0.000025 3.199975
v -255.199997 -0.000036 -181.600021
v -297.792023 47.999962 -222.592087
v -307.568054 47.999966 -142.880051
v -265.600006 -0.000035 -152.000031
vn -0.5046 0.7449 0.4364
vn -0.5173 0.7740 0.3652
vn -0.4967 0.7346 0.4622
vn -0.4248 0.6782 0.5997
vn 0.5333 0.5019 0.6810
vn 0.5229 0.4971 0.6924
vn 0.3019 0.5839 0.7536
vn 0.2910 0.5949 0.7493
vn 0.2043 0.5685 0.7969
vn 0.2900 0.5562 0.7788
vn 0.5229 0.4971 0.6925
vn 0.2042 0.5685 0.7969
vn 0.1477 0.6388 0.7551
vn 0.0420 0.5784 0.8147
vn 0.2901 0.5562 0.7788
vn -0.1373 0.6471 0.7499
vn -0.1033 0.6165 0.7806
vn 0.8347 0.5506 0.0093
vn 0.8374 0.5276 0.1429
vn 0.8360 0.5457 0.0580
vn 0.8064 0.5887 -0.0560
vn 0.8228 0.5101 0.2504
vn 0.8245 0.4947 0.2748
vn 0.5380 0.7404 0.4030
vn 0.6738 0.6950 0.2507
vn 0.7383 0.6668 0.1015
vn 0.7786 0.6226 0.0791
vt 0.000000 0.000000
vt 0.000000 1.000000
vt 1.000000 1.000000
vt 1.000000 0.000000
s 1
usemtl Outside
f 134/17/204 130/20/207 129/19/206 135/18/205
f 136/17/208 133/20/211 132/19/210 137/18/209
f 136/17/208 137/20/214 139/19/213 138/18/212
f 138/17/215 139/20/218 140/19/217 141/18/216
f 128/17/219 129/20/206 130/19/207 131/18/220
f 138/17/212 136/20/208 137/19/214 139/18/213
f 142/17/221 143/20/224 144/19/223 145/18/222
f 146/17/225 147/20/226 145/19/222 144/18/223
f 149/17/227 148/20/228 141/19/216 140/18/217
f 143/17/224 142/20/221 151/19/230 150/18/229
f 148/17/228 149/20/227 150/19/229 151/18/230
f 128/17/219 131/20/220 132/19/210 133/18/211
o part258
v 206.800003 80.000015 -46.799992
v 178.224060 48.000011 -90.991997
v 146.400024 0.000005 -96.799988
v 163.600006 0.000011 -46.799988
v 161.600006 0.000015 13.600015
v 204.800003 80.000015 13.600012
v 104.000031 -0.000011 -262.400024
v 83.200020 -0.000008 -199.200012
v 126.336037 48.000000 -187.248032
v 160.928040 47.999996 -283.504089
v 139.120026 48.000004 -131.599991
v 96.800018 -0.000002 -139.999985
v 113.552055 47.999989 -329.376007
v 84.800026 -0.000014 -289.600006
v 60.000031 -0.000018 -312.800018
v 56.400028 47.999981 -351.184052
v -9.023974 47.999977 -351.936035
v -9.599973 -0.000025 -313.600006
vn -0.7620 0.4562 0.4595
vn -0.7304 0.5812 0.3588
vn -0.7003 0.4875 0.5216
vn -0.7808 0.4675 0.4144
vn -0.8668 0.4893 0.0968
vn -0.8722 0.4710 0.1320
vn -0.5956 0.7720 0.2220
vn -0.6594 0.7509 -0.0372
vn -0.4999 0.7388 0.4519
vn -0.4416 0.6875 0.5766
vn -0.7226 0.6838 -0.1016
vn -0.7282 0.6785 -0.0966
vn -0.0090 0.6241 0.7813
vn -0.1506 0.6105 0.7776
vn -0.2023 0.6544 0.7286
vn -0.8795 0.4749 -0.0291
vt 0.000000 0.000000
vt 0.000000 1.000000
vt 1.000000 1.000000
vt 1.000000 0.000000
s 1
usemtl Outside
f 154/21/231 153/24/234 162/23/233 163/22/232
f 152/21/235 153/24/234 154/23/231 155/22/236
f 161/21/237 164/24/240 165/23/239 158/22/238
f 160/21/241 159/24/242 163/23/232 162/22/233
f 160/23/241 161/22/237 158/21/238 159/24/242
f 168/21/243 169/24/243 166/23/245 167/22/244
f 166/21/245 165/24/239 164/23/240 167/22/244
f 156/21/246 157/24/246 152/23/235 155/22/236
o part259
v -87.232048 48.000019 323.360046
v 9.023970 48.000027 314.336060
v 9.599977 0.000022 276.000000
v -92.800026 0.000013 285.600006
v -139.200043 0.000012 324.400024
v -130.848038 48.000019 359.832031
v -164.800034 0.000010 324.000031
v -154.912048 48.000015 359.456024
v -220.800034 0.000003 293.599976
v -207.552017 48.000011 330.880005
v -281.600037 -0.000007 229.599976
v -264.704102 48.000000 270.719971
v -294.400055 -0.000010 213.599976
v -349.600037 79.999985 238.799988
v -297.792053 47.999985 108.287971
v -265.600006 15.999986 115.199982
v -254.400009 -0.000018 62.399979
v -287.264008 47.999981 58.655979
v -290.400055 -0.000012 179.199982
v -341.600037 79.999985 179.199982
v -333.600006 79.999969 3.199965
v -285.600006 -0.000025 3.199975
v -267.200012 -0.000027 -52.000027
v -318.400024 79.999962 -52.000038
vn -0.3886 0.5971 -0.7017
vn -0.2704 0.6018 -0.7515
vn -0.4337 0.5828 -0.6872
vn 0.3417 0.5118 -0.7882
vn 0.6053 0.3773 -0.7009
vn 0.5142 0.4330 -0.7403
vn 0.2202 0.5498 -0.8057
vn 0.6577 0.3618 -0.6606
vn 0.7018 0.3047 -0.6440
vn 0.7263 0.6043 -0.3274
vn 0.8005 0.5174 -0.3024
vn 0.8380 0.5145 -0.1818
vn 0.7813 0.6229 -0.0386
vn 0.8281 0.5482 -0.1174
vn 0.8517 0.5225 0.0398
vn 0.6912 0.7162 0.0962
vn 0.7561 0.6367 0.1515
vn 0.7625 0.5920 0.2608
vn 0.8305 0.5337 0.1593
vn 0.8205 0.5251 0.2259
vn 0.8228 0.5101 0.2504
vn -0.0731 0.6219 -0.7797
vt 0.000000 0.000000
vt -0.000000 1.000000
vt 1.000000 1.000000
vt 1.000000 0.000000
s 1
usemtl Outside
f 170/25/247 173/28/247 174/27/249 175/26/248
f 177/25/250 176/26/253 178/25/252 179/26/251
f 176/25/253 177/28/250 175/27/248 174/26/249
f 179/25/251 178/28/252 180/27/255 181/26/254
f 181/25/254 180/28/255 182/27/257 183/26/256
f 191/25/258 190/28/261 187/27/260 186/26/259
f 186/27/259 187/26/260 184/25/263 185/28/262
f 188/25/264 185/28/262 184/27/263 189/26/265
f 190/25/261 191/28/258 192/27/267 193/26/266
f 170/25/247 171/28/268 172/27/268 173/26/247
f 189/25/265 183/28/256 182/27/257 188/26/264
o part260
v 206.800003 80.000015 -46.799992
v 178.224060 48.000011 -90.991997
v 146.400024 0.000005 -96.799988
v 163.600006 0.000011 -46.799988
v 161.600006 0.000015 13.600015
v 204.800003 80.000015 13.600012
v 225.599976 48.000046 315.088043
v 242.143997 48.000042 198.528061
v 206.399994 0.000034 211.200027
v 193.599976 0.000039 288.000031
v 151.152008 48.000042 346.672058
v 159.999969 0.000037 310.400024
v 176.399994 0.000028 169.600021
v 213.944000 48.000034 159.424057
v 200.407990 48.000031 102.272018
v 170.000000 0.000023 108.800018
v 214.400009 80.000015 43.200012
v 171.200012 0.000018 43.200016
v -87.232048 48.000019 323.360046
v 9.023970 48.000027 314.336060
v 9.599977 0.000022 276.000000
v -92.800026 0.000013 285.600006
v 108.799980 0.000032 301.600006
v 102.271965 48.000038 338.400055
vn -0.8668 0.4893 0.0968
vn -0.8722 0.4710 0.1320
vn -0.8398 0.4956 0.2215
vn -0.8322 0.5333 0.1519
vn -0.7074 0.6077 0.3609
vn -0.6902 0.6192 0.3744
vn -0.7316 0.6198 0.2841
vn -0.7818 0.6188 0.0764
vn -0.7384 0.6236 -0.2566
vn -0.6391 0.6134 -0.4639
vn -0.8172 0.5649 0.1149
vn -0.8550 0.5163 0.0496
vn -0.8723 0.4711 0.1308
vn -0.8607 0.5015 0.0874
vn -0.8776 0.4739 0.0728
vn -0.8663 0.4678 0.1751
vn 0.1081 0.6212 -0.7762
vn 0.0172 0.6241 -0.7812
vn 0.1656 0.6138 -0.7719
vn 0.1647 0.6138 -0.7721
vn -0.1390 0.6015 -0.7867
vn -0.1885 0.5697 -0.7999
vn -0.0731 0.6219 -0.7797
vt 0.000000 0.000000
vt 0.000000 1.000000
vt 1.000000 1.000000
vt 1.000000 0.000000
s 1
usemtl Outside
f 194/29/269 195/32/272 196/31/271 197/30/270
f 206/29/273 202/32/276 201/31/275 207/30/274
f 200/29/277 201/32/275 202/31/276 203/30/278
f 208/29/279 209/32/280 206/31/273 207/30/274
f 209/29/280 208/32/279 210/31/282 211/30/281
f 211/29/281 210/32/282 199/31/284 198/30/283
f 198/29/283 199/32/284 194/31/269 197/30/270
f 213/29/285 217/32/288 216/31/287 214/30/286
f 204/29/289 200/32/277 203/31/278 205/30/290
f 216/29/287 217/32/288 204/31/289 205/30/290
f 212/29/291 213/32/285 214/31/286 215/30/291
o part261
v -84.224022 47.999973 -282.752014
v -9.023997 47.999977 -351.936035
v -9.023989 47.999969 -448.192017
v -84.224014 47.999966 -379.008026
v -142.400009 79.999954 -369.600037
v -142.400009 79.999962 -267.200043
v 56.400005 47.999981 -351.184052
v 56.400013 47.999973 -447.440033
v -333.600037 79.999969 3.199965
v -436.000061 79.999962 3.199956
v -383.520050 47.999973 58.655972
v -287.264038 47.999981 58.655979
v -318.400055 79.999962 -52.000038
v -420.800049 79.999954 -52.000046
v -214.400009 79.999954 -369.600037
v -214.400009 79.999962 -267.200043
v -297.792053 47.999962 -222.592087
v -297.792053 47.999954 -318.848114
v -297.040039 47.999969 -105.280067
v -393.296082 47.999962 -105.280075
v -385.024048 47.999954 -192.512054
v -399.312073 47.999958 -142.880066
v -307.568085 47.999966 -142.880051
vn 0.3934 0.9194 -0.0000
vn 0.2488 0.9686 -0.0000
vn -0.1822 0.9833 -0.0000
vn -0.0000 1.0000 -0.0000
vn -0.0000 0.9660 0.2587
vn -0.0000 0.8661 0.4998
vn -0.0000 0.9948 0.1022
vn -0.1619 0.9868 -0.0000
vn -0.2424 0.9702 -0.0000
vn -0.0000 0.9841 -0.1774
vn -0.0000 0.9350 -0.3547
vn -0.0000 0.9637 -0.2671
vn -0.0000 0.9068 -0.4216
vt 0.000000 0.000000
vt 0.000000 1.000000
vt 1.000000 1.000000
vt 1.000000 0.000000
s 1
usemtl Outside
f 221/33/292 222/36/293 223/35/293 218/34/293
f 232/33/294 233/36/294 223/35/293 222/34/293
f 218/33/293 219/36/295 220/35/295 221/34/292
f 226/33/296 227/36/298 228/35/297 229/34/297
f 234/33/299 233/36/294 232/35/294 235/34/300
f 239/35/295 240/34/295 234/33/299 238/36/295
f 230/35/301 231/34/302 227/33/298 226/36/296
f 237/33/303 236/36/304 240/35/295 239/34/295
f 234/33/299 235/35/300 238/34/295
f 220/33/295 219/36/295 224/35/295 225/34/295
f 236/33/304 237/36/303 231/35/302 230/34/301
o part262
v 178.224060 48.000011 -90.991997
v 274.480042 48.000019 -90.991989
v 235.188004 48.000011 -131.787994
v 139.120026 48.000004 -131.599991
v 204.800003 80.000015 13.600012
v 307.200012 80.000031 13.600021
v 309.200012 80.000031 -46.799980
v 206.800003 80.000015 -46.799992
v 126.336037 48.000000 -187.248032
v 222.592072 48.000008 -187.248016
v 257.184052 48.000004 -283.504059
v 160.928040 47.999996 -283.504089
v 192.512054 47.999989 -385.024048
v 113.552055 47.999989 -329.376007
v 113.552063 47.999985 -425.632111
v 56.400036 47.999973 -447.440033
v 56.400028 47.999981 -351.184052
v -9.023966 47.999969 -448.192017
v -9.023974 47.999977 -351.936035
vn -0.0000 1.0000 -0.0000
vn -0.0000 0.9513 -0.3083
vn -0.0000 0.9789 -0.2043
vn -0.0000 0.9127 -0.4086
vn -0.0000 0.9926 -0.1210
vt 0.000000 0.000000
vt 0.000000 1.000000
vt 1.000000 1.000000
vt 1.000000 0.000000
s 1
usemtl Outside
f 250/37/305 249/40/305 244/39/305 243/38/305
f 242/37/306 241/40/309 248/39/308 247/38/307
f 241/37/309 242/40/306 243/39/305 244/38/305
f 254/37/305 252/40/305 253/39/305 255/38/305
f 249/37/305 250/40/305 251/39/305 252/38/305
f 252/37/305 251/39/305 253/38/305
f 258/37/305 259/40/305 257/39/305 256/38/305
f 245/37/305 246/40/305 247/39/307 248/38/308
f 254/37/305 255/40/305 256/39/305 257/38/305
o part263
v -394.048096 47.999977 108.287964
v -297.792053 47.999985 108.287971
v -287.264008 47.999981 58.655979
v -383.520020 47.999973 58.655972
v -436.000031 79.999962 3.199956
v -333.600006 79.999969 3.199965
v -318.400024 79.999962 -52.000038
v -420.800018 79.999954 -52.000046
v -207.552017 48.000011 330.880005
v -207.552017 48.000015 427.136017
v -154.912064 48.000023 455.712006
v -154.912048 48.000015 359.456024
v -264.704102 48.000008 366.975983
v -264.704102 48.000000 270.719971
v -130.848053 48.000027 456.088013
v -130.848038 48.000019 359.832031
v -349.600037 79.999985 238.799988
v -466.600067 79.999977 238.799973
v -444.000061 79.999977 179.199966
v -341.600037 79.999985 179.199982
v 9.023961 48.000034 410.592010
v 9.023970 48.000027 314.336060
v -87.232048 48.000019 323.360046
v -87.232056 48.000027 419.615997
vn -0.0000 0.9391 0.3436
vn -0.0000 0.9851 0.1718
vn -0.0000 1.0000 -0.0000
vn 0.0523 0.9986 -0.0000
vn 0.0561 0.9656 0.2538
vn 0.0416 0.9813 0.1880
vn -0.0000 0.9236 0.3833
vn -0.0000 0.9902 -0.1399
vn -0.0000 0.9601 -0.2798
vt 0.000000 0.000000
vt 0.000000 1.000000
vt 1.000000 1.000000
vt 1.000000 0.000000
s 1
usemtl Outside
f 265/41/310 264/44/311 263/43/310 262/42/311
f 264/41/311 265/44/310 266/43/312 267/42/312
f 272/41/313 269/44/312 268/43/312 273/42/314
f 273/41/314 276/44/316 277/43/315 272/42/313
f 279/41/317 278/44/318 277/43/315 276/42/316
f 260/41/317 261/44/318 262/43/311 263/42/310
f 275/41/312 274/44/312 283/43/312 282/42/312
f 278/41/318 279/44/317 261/43/318 260/42/317
f 274/41/312 275/44/312 271/43/312 270/42/312
f 280/41/312 281/44/312 282/43/312 283/42/312
f 268/41/312 269/44/312 270/43/312 271/42/312
o part264
v 225.599976 48.000046 315.088043
v 321.855988 48.000053 315.088043
v 338.400024 48.000050 198.528076
v 242.143997 48.000042 198.528061
v 151.152008 48.000042 346.672058
v 150.775970 48.000050 429.768066
v 310.200043 48.000042 159.424072
v 213.944000 48.000034 159.424057
v 200.407990 48.000031 102.272018
v 296.664001 48.000038 102.272026
v 316.800018 80.000031 43.200024
v 214.400009 80.000015 43.200012
v 204.800003 80.000015 13.600012
v 307.200012 80.000031 13.600021
v 309.200012 80.000031 -46.799980
v 206.800003 80.000015 -46.799992
v 102.271965 48.000038 338.400055
v 102.271957 48.000046 434.656097
v 9.023961 48.000034 410.592010
v 9.023970 48.000027 314.336060
v -87.232056 48.000027 419.615997
v -87.232048 48.000019 323.360046
vn -0.0000 1.0000 -0.0000
vn -0.0000 0.9214 0.3886
vn -0.0000 0.9693 0.2457
vt 0.000000 0.000000
vt 0.000000 1.000000
vt 1.000000 1.000000
vt 1.000000 0.000000
s 1
usemtl Outside
f 288/45/319 289/48/319 285/47/319 284/46/319
f 300/45/319 301/48/319 289/47/319 288/46/319
f 290/47/319 291/46/319 287/45/319 286/48/319
f 284/45/319 285/48/319 286/47/319 287/46/319
f 297/45/319 296/48/319 295/47/321 294/46/320
f 293/45/321 292/48/320 291/47/319 290/46/319
f 302/45/319 301/48/319 300/47/319 303/46/319
f 304/45/319 302/48/319 303/47/319 305/46/319
f 292/45/320 293/48/321 294/47/320 295/46/321
f 296/45/319 297/48/319 298/47/319 299/46/319
