# Blender 4.0.1
# www.blender.org
mtllib mask.mtl
o mask
v -112.000031 0.000035 296.000000
v -112.000031 -7.999961 292.000000
v -96.000031 -7.999959 293.200012
v -96.000031 0.000036 297.600006
v -96.000031 -15.999964 288.800018
v -112.000031 -15.999966 288.000000
v -112.000031 0.000029 257.600006
v -112.000031 -7.999966 260.800018
v -128.000031 -7.999966 268.000000
v -128.000031 0.000029 264.000000
v -128.000031 -15.999969 272.000000
v -112.000031 -15.999970 264.000000
v -128.000031 0.000036 312.800018
v -128.000031 -7.999959 308.400024
v -128.000031 -15.999966 304.000000
v -160.000031 -15.999969 288.000000
v -160.800034 -7.999966 284.000000
v -144.000031 -7.999965 284.400024
v -144.000031 -15.999969 288.000000
v -98.400024 0.000029 250.399994
v -97.200027 -7.999965 253.199997
v -96.000031 -15.999969 256.000000
v -161.600037 0.000028 280.000000
v -178.400040 -7.999965 300.400024
v -180.800034 0.000029 296.799988
v -176.000046 -15.999969 304.000000
v -144.000031 0.000030 280.800018
v -128.000031 -15.999966 304.000000
v -128.000031 -7.999959 308.400024
v -143.200043 -7.999960 308.600006
v -144.000031 -15.999968 304.000000
v -142.400040 0.000035 313.200012
v -128.000031 0.000036 312.800018
v -178.400040 -15.999965 336.000031
v -183.600037 -7.999960 336.000000
v -180.800034 -7.999963 318.800018
v -176.000046 -15.999968 320.000000
v -185.600037 0.000032 317.599976
v -188.800034 0.000034 336.000000
v -168.000015 0.000046 400.000031
v -164.000046 -7.999949 400.000031
v -160.000031 -7.999946 419.600006
v -160.000031 0.000050 423.200012
v -176.000046 -15.999962 352.000031
v -181.200043 -7.999957 352.000031
v -186.400040 0.000037 352.000000
v -160.000031 -15.999967 320.000000
v -155.200043 -7.999959 320.800018
v -155.200043 -7.999958 336.000031
v -160.000031 -15.999962 336.000031
v -150.400040 0.000037 336.000031
v -150.400040 0.000035 321.600006
v -160.000031 -15.999950 416.000031
v -160.000031 -15.999952 400.000031
v -153.200043 -7.999955 352.000031
v -158.400040 -15.999960 352.000031
v -148.000031 0.000039 352.000031
v -144.000031 0.000051 423.200012
v -144.000031 -7.999945 419.600006
v -140.000015 -7.999947 400.000031
v -136.000015 0.000038 400.000031
v -156.000031 -7.999953 368.000000
v -160.000031 -15.999960 368.000031
v -152.000031 0.000038 368.000000
v -176.000046 -15.999958 384.000031
v -180.000046 -7.999952 384.000031
v -179.257187 -7.999955 368.000031
v -176.000046 -15.999960 368.000031
v -182.514328 0.000040 368.000000
v -184.000046 0.000042 384.000000
v -144.000031 -15.999954 400.000031
v -144.000031 -15.999952 416.000031
v -180.800034 0.000029 296.799988
v -178.400040 -7.999965 300.400024
v -155.600037 -7.999950 384.000031
v -160.000031 -15.999956 384.000031
v -151.200043 0.000045 384.000031
v -176.000046 -15.999969 304.000000
v -19.999985 -0.000028 -176.000015
v -15.999987 -8.000023 -176.000015
v -19.199989 -8.000021 -160.800003
v -22.399988 -0.000026 -161.600006
v -15.999985 -16.000025 -160.000000
v -11.999985 -16.000029 -176.000015
v -52.799992 -0.000025 -131.200012
v -50.399990 -8.000018 -129.600006
v -64.399994 -8.000017 -113.200012
v -67.999992 -0.000024 -114.400017
v -35.999989 -0.000025 -147.200012
v -33.999989 -8.000020 -145.600006
v -47.999992 -16.000023 -128.000000
v -31.999985 -16.000025 -144.000000
v -6.399982 -0.000032 -208.000015
v -2.399983 -8.000025 -208.000015
v -3.999984 -8.000024 -192.000015
v -7.999983 -0.000029 -192.000015
v 0.000018 -16.000031 -192.000015
v 1.600020 -16.000031 -208.000015
v -60.799992 -16.000021 -112.000015
v 0.000015 -16.000023 -160.000000
v 1.600014 -8.000018 -154.400009
v -10.799984 -8.000017 -143.200012
v -15.999987 -16.000025 -144.000000
v -5.599988 -0.000022 -142.400009
v 3.200013 -0.000022 -148.800003
v -23.999992 -0.000019 -112.000008
v -27.999989 -8.000014 -112.000008
v -12.399985 -8.000015 -128.000000
v -7.199989 -0.000020 -128.000000
v -17.599987 -16.000021 -128.000000
v -31.999989 -16.000017 -112.000008
v -67.999992 -8.000016 -96.000015
v -71.999992 -0.000021 -96.000015
v -63.999992 -16.000021 -96.000015
v -23.999994 -0.000016 -96.000008
v -27.999990 -8.000012 -96.000008
v -31.999990 -16.000017 -96.000008
v -48.000000 -16.000008 -32.000004
v -43.999996 -8.000004 -32.000004
v -29.599995 -8.000000 -16.000002
v -33.600002 -16.000008 -16.000000
v -48.000004 -16.000004 -0.000002
v -52.000004 -8.000000 -0.000003
v -68.800003 -8.000003 -16.000006
v -64.800003 -16.000010 -16.000002
v -73.599998 -0.000018 -80.000008
v -69.599998 -8.000012 -80.000008
v -67.999992 -8.000010 -64.000008
v -71.999992 -0.000016 -64.000008
v -46.399998 -16.000011 -48.000008
v -42.399994 -8.000006 -48.000008
v -39.999996 -0.000008 -32.000004
v -38.399998 -0.000011 -48.000008
v -72.800003 -0.000009 -16.000006
v -56.000004 -0.000005 -0.000005
v -63.999996 -16.000017 -64.000008
v -65.599998 -16.000017 -80.000008
v -63.999996 -16.000010 -32.000004
v -68.000000 -8.000007 -32.000004
v -66.399994 -8.000009 -48.000008
v -62.399998 -16.000013 -48.000008
v -70.399994 -0.000014 -48.000011
v -72.000000 -0.000011 -32.000008
v -39.999996 -0.000013 -64.000000
v -43.999996 -8.000009 -64.000000
v -45.599991 -8.000010 -80.000000
v -41.599995 -0.000016 -80.000000
v -48.000000 -16.000015 -64.000000
v -27.999998 -7.999997 -0.000001
v -31.999998 -16.000002 -0.000001
v -24.000002 -0.000002 -0.000002
v -25.599998 -0.000004 -16.000002
v -49.599995 -16.000015 -80.000000
v -31.999990 -16.000017 -96.000008
v -27.999990 -8.000012 -96.000008
v -71.999992 -0.000021 -96.000015
v -67.999992 -8.000016 -96.000015
v -63.999992 -16.000021 -96.000015
v -23.999994 -0.000016 -96.000008
v -11.200006 0.000009 64.000000
v -15.200003 -7.999986 64.000000
v -12.000001 -7.999988 48.000004
v -8.000004 0.000007 48.000004
v -16.000004 -15.999994 48.000004
v -19.200005 -15.999992 64.000000
v -12.000004 -7.999984 80.400002
v -16.000006 -15.999990 80.000000
v -48.000011 -15.999992 80.000000
v -51.600010 -7.999987 78.399994
v -43.600006 -7.999989 62.799999
v -40.000004 -15.999994 63.999996
v -47.200005 0.000006 61.599998
v -55.200008 0.000007 76.799995
v -56.000004 -0.000005 -0.000005
v -52.000004 -8.000000 -0.000003
v -48.000004 -7.999997 15.999997
v -51.200001 -0.000002 15.999995
v -44.800003 -16.000000 15.999998
v -48.000004 -16.000004 -0.000002
v -8.000007 0.000011 80.800003
v -40.000004 0.000004 48.000000
v -36.000004 -7.999990 48.000000
v -8.000001 0.000002 15.999999
v -11.999998 -7.999992 16.000000
v -27.999998 -7.999997 -0.000001
v -24.000002 -0.000002 -0.000002
v -31.999998 -16.000002 -0.000001
v -16.000000 -15.999999 16.000002
v -32.000004 -15.999994 48.000004
v -49.600006 -7.999995 31.999996
v -53.600006 0.000000 31.999996
v -45.600006 -15.999999 32.000000
v -65.326843 -7.999986 94.799995
v -68.800011 0.000008 93.599998
v -29.200008 -7.999982 98.000008
v -32.000008 -15.999987 96.000008
v -26.400011 0.000013 100.000008
v -11.200004 0.000003 31.999998
v -15.200000 -7.999991 32.000000
v -19.200001 -15.999996 32.000000
v -61.853668 -15.999990 96.000000
v -88.000023 0.000014 143.999985
v -84.000023 -7.999980 144.000000
v -81.600021 -7.999978 160.000000
v -85.600021 0.000017 160.000000
v -77.600021 -15.999983 160.000000
v -80.000015 -15.999987 144.000000
v -80.000015 -15.999981 176.000015
v -84.000023 -7.999976 176.000015
v -88.000023 0.000019 176.000000
v -54.400021 0.000027 208.000015
v -59.200024 -7.999968 208.000015
v -60.000019 -7.999972 192.000015
v -56.000019 0.000024 192.000015
v -56.000019 0.000021 176.000015
v -60.000019 -7.999974 176.000015
v -57.200020 -7.999976 160.000000
v -52.800018 0.000019 160.000000
v -61.600018 -15.999981 160.000000
v -64.000015 -15.999979 176.000015
v -64.000015 -15.999977 192.000015
v -64.000015 -15.999975 208.000015
v -32.000008 -15.999987 96.000008
v -29.200008 -7.999982 98.000008
v -44.000011 -7.999981 112.000008
v -48.000015 -15.999987 112.000008
v -40.000011 0.000013 112.000008
v -26.400011 0.000013 100.000008
v -60.000015 -7.999978 144.000000
v -56.000015 0.000017 144.000000
v -64.000008 -15.999989 112.000000
v -68.400009 -7.999985 110.399994
v -65.326843 -7.999986 94.799995
v -61.853668 -15.999990 96.000000
v -68.800011 0.000008 93.599998
v -72.800011 0.000010 108.799995
v -85.200012 -7.999982 127.999992
v -80.000008 -15.999989 127.999992
v -90.400009 0.000012 127.999992
v -41.600014 0.000015 125.600006
v -44.800011 -7.999979 124.400009
v -59.200016 -7.999980 129.200012
v -54.400013 0.000015 130.400009
v -64.000008 -15.999987 127.999992
v -64.000015 -15.999985 144.000000
v -48.000015 -15.999985 123.200005
v -85.600021 0.000021 192.000015
v -82.000023 -7.999974 192.000015
v -86.800018 -7.999970 208.000015
v -92.000023 0.000024 208.000000
v -78.400017 -15.999979 192.000015
v -81.600021 -15.999977 208.000015
v -56.000027 0.000033 256.000000
v -60.000027 -7.999960 256.000000
v -44.000023 -7.999962 240.000015
v -40.000023 0.000033 240.000015
v -48.000027 -15.999968 240.000015
v -64.000023 -15.999968 256.000000
v -80.000023 -15.999973 224.000015
v -84.000031 -7.999969 224.000015
v -86.800018 -7.999970 208.000015
v -81.600021 -15.999977 208.000015
v -92.000023 0.000024 208.000000
v -88.000031 0.000026 224.000000
v -80.000023 -15.999964 286.400024
v -78.000023 -7.999958 290.400024
v -96.000031 -7.999959 293.200012
v -96.000031 -15.999964 288.800018
v -60.400024 -7.999959 273.600006
v -64.000023 -15.999964 272.000000
v -96.000031 0.000036 297.600006
v -76.000023 0.000038 294.400024
v -56.800026 0.000037 275.200012
v -96.000031 -15.999969 256.000000
v -97.200027 -7.999965 253.199997
v -84.378410 -7.999966 239.200012
v -80.000023 -15.999972 240.000015
v -41.200016 -7.999965 224.000015
v -36.800022 0.000031 224.000015
v -59.200024 -7.999968 208.000015
v -54.400021 0.000027 208.000015
v -64.000015 -15.999975 208.000015
v -45.600021 -15.999969 224.000015
v -88.756783 0.000028 238.399994
v -98.400024 0.000029 250.399994
v 32.000023 -16.000036 -257.600006
v 32.000023 -8.000031 -261.600006
v 48.000027 -8.000030 -260.000000
v 48.000027 -16.000034 -256.000000
v 96.000031 -16.000027 -240.000000
v 100.000031 -8.000022 -240.000000
v 97.466698 -8.000020 -224.000000
v 93.600029 -16.000025 -224.000000
v 101.333366 -0.000025 -224.000000
v 104.000031 -0.000027 -240.000000
v 91.200027 -0.000034 -277.600006
v 93.600029 -8.000029 -274.800018
v 77.600029 -8.000028 -260.000000
v 75.200027 -0.000033 -264.000000
v 64.000023 -8.000028 -256.266693
v 64.000023 -16.000032 -252.266678
v 48.000027 -0.000036 -264.000000
v 32.000023 -0.000037 -265.600006
v 102.400017 -0.000023 -205.599991
v 99.200020 -8.000017 -206.799988
v 16.000025 -16.000038 -254.400009
v 14.800025 -8.000031 -258.000000
v 96.000023 -16.000023 -208.000000
v 13.600023 -0.000039 -261.600006
v 0.000021 -16.000034 -224.000015
v -3.999980 -8.000030 -224.000015
v -1.066647 -8.000031 -241.600006
v 2.666688 -16.000034 -240.000015
v -4.799979 -0.000037 -243.200012
v -7.999980 -0.000035 -224.000015
v 64.000023 -0.000034 -260.266693
v 80.000023 -16.000032 -255.999985
v 96.000031 -16.000032 -272.000000
v -2.399983 -8.000025 -208.000015
v -6.399982 -0.000032 -208.000015
v 1.600020 -16.000031 -208.000015
v 70.400017 -0.000020 -168.800003
v 67.200020 -8.000015 -172.400009
v 82.800018 -8.000016 -189.199997
v 85.600021 -0.000021 -186.400009
v 32.000015 -16.000021 -158.400009
v 32.000015 -8.000015 -154.400009
v 16.000013 -8.000016 -155.200012
v 16.000015 -16.000023 -160.000000
v 3.200013 -0.000022 -148.800003
v 1.600014 -8.000018 -154.400009
v 16.000013 -0.000021 -150.400009
v 96.000023 -16.000023 -208.000000
v 99.200020 -8.000017 -206.799988
v 80.000015 -16.000023 -192.000000
v 32.000011 -0.000020 -150.400009
v 48.000019 -8.000017 -172.000015
v 48.000019 -0.000021 -168.000015
v 0.000015 -16.000023 -160.000000
v 64.000015 -16.000021 -176.000015
v 48.000019 -16.000023 -176.000015
v 102.400017 -0.000023 -205.599991
v 120.076881 -0.000038 -319.914459
v 124.038452 -8.000031 -319.957214
v 124.000031 -8.000030 -304.800018
v 120.000038 -0.000036 -305.600006
v 128.000031 -16.000034 -304.000000
v 128.000031 -16.000038 -320.000000
v 144.153732 -0.000037 -327.828857
v 144.076874 -8.000031 -323.914459
v 128.076874 -8.000033 -327.914459
v 128.153717 -0.000039 -335.828857
v 192.000046 -16.000027 -319.999969
v 192.055008 -8.000026 -311.799988
v 176.055008 -8.000024 -296.199982
v 176.000046 -16.000027 -303.999969
v 176.109970 -0.000018 -288.399994
v 192.109970 -0.000018 -303.599976
v 144.000031 -16.000036 -320.000000
v 160.153732 -0.000036 -327.828857
v 160.076889 -8.000031 -323.914459
v 160.000031 -16.000034 -320.000000
v 176.153732 -0.000034 -327.828827
v 176.076889 -8.000029 -323.914429
v 208.000046 -0.000036 -364.000000
v 208.000046 -0.000030 -319.999969
v 208.000046 -8.000026 -328.000000
v 208.000046 -8.000031 -358.000000
v 192.022934 -16.000032 -336.000000
v 191.688324 -8.000030 -337.957214
v 208.000046 -16.000032 -352.000000
v 208.000046 -16.000027 -336.000000
v 191.353729 -0.000035 -339.914429
v 176.000046 -16.000032 -319.999969
v 121.600029 -0.000028 -253.599991
v 116.800026 -8.000023 -254.800003
v 131.027527 -8.000024 -267.900024
v 134.055008 -0.000030 -263.800018
v 104.800026 -0.000035 -292.800018
v 108.400024 -8.000029 -290.400024
v 93.600029 -8.000029 -274.800018
v 91.200027 -0.000034 -277.600006
v 96.000031 -16.000032 -272.000000
v 112.000031 -16.000032 -288.000000
v 144.000031 -16.000032 -288.000000
v 147.255005 -8.000024 -283.800018
v 128.000031 -16.000031 -272.000000
v 176.000046 -16.000027 -303.999969
v 176.055008 -8.000024 -296.199982
v 161.655014 -8.000025 -296.600006
v 160.000031 -16.000034 -304.000000
v 112.000031 -16.000029 -255.999985
v 150.509979 -0.000030 -279.600006
v 163.309982 -0.000031 -289.200012
v 104.000031 -0.000027 -240.000000
v 100.000031 -8.000022 -240.000000
v 124.000031 -8.000030 -304.800018
v 128.000031 -16.000034 -304.000000
v 120.000038 -0.000036 -305.600006
v 96.000031 -16.000027 -240.000000
v 176.109970 -0.000018 -288.399994
vn -0.0873 -0.4801 0.8729
vn 0.3281 -0.4333 0.8394
vn 0.3284 -0.4267 0.8427
vn -0.0740 -0.4735 0.8777
vn 0.3257 -0.4228 0.8457
vn -0.0581 -0.4687 0.8814
vn -0.0739 -0.4735 0.8777
vn 0.3285 -0.4288 0.8416
vn -0.5018 -0.3727 -0.7806
vn -0.3987 -0.3448 -0.8498
vn -0.3976 -0.3498 -0.8483
vn -0.5411 -0.3670 -0.7566
vn -0.4048 -0.3535 -0.8433
vn -0.5717 -0.3625 -0.7361
vn 0.6771 -0.3546 0.6448
vn 0.6733 -0.3521 0.6501
vn 0.6678 -0.3514 0.6561
vn 0.3258 -0.4228 0.8456
vn -0.3533 -0.3839 -0.8531
vn -0.3226 -0.4532 -0.8310
vn -0.3055 -0.4522 -0.8380
vn -0.3555 -0.3899 -0.8495
vn -0.3987 -0.3444 -0.8499
vn -0.4374 -0.3548 -0.8263
vn -0.4316 -0.3509 -0.8310
vn -0.3975 -0.3498 -0.8483
vn -0.4250 -0.3489 -0.8352
vn -0.6020 -0.4534 -0.6573
vn -0.2949 -0.4507 -0.8425
vn -0.6151 -0.4586 -0.6413
vn -0.6247 -0.4685 -0.6247
vn -0.3055 -0.4521 -0.8380
vn -0.3567 -0.3938 -0.8472
vn -0.5412 -0.3670 -0.7566
vn -0.3555 -0.3900 -0.8494
vn -0.2949 -0.4508 -0.8425
vn -0.3054 -0.4522 -0.8380
vn -0.3534 -0.3839 -0.8531
vn 0.3671 -0.4934 0.7885
vn 0.0072 -0.4881 0.8727
vn 0.0161 -0.4858 0.8739
vn 0.3073 -0.4951 0.8127
vn 0.0243 -0.4818 0.8760
vn 0.3609 -0.4926 0.7919
vn 0.0160 -0.4858 0.8739
vn -0.8515 -0.5204 -0.0635
vn -0.8403 -0.5421 -0.0030
vn -0.8394 -0.5435 -0.0064
vn -0.8564 -0.5062 -0.1017
vn -0.8384 -0.5450 -0.0098
vn -0.8527 -0.5030 -0.1409
vn -0.9354 -0.1451 0.3225
vn -0.8047 -0.3568 0.4744
vn -0.8289 -0.3748 0.4152
vn -0.9518 -0.1752 0.2518
vn -0.8403 -0.5421 -0.0029
vn -0.8551 -0.5103 0.0912
vn -0.8411 -0.5243 0.1331
vn -0.8282 -0.5383 0.1557
vn 0.8569 -0.5142 -0.0360
vn 0.7948 -0.5098 0.3292
vn 0.7911 -0.5050 0.3451
vn 0.8544 -0.5172 -0.0494
vn 0.8160 -0.5157 0.2610
vn 0.8516 -0.5200 -0.0665
vn -0.8387 -0.4194 0.3474
vn -0.9679 -0.2111 0.1364
vn -0.9518 -0.1752 0.2519
vn -0.8289 -0.3748 0.4153
vn 0.8526 -0.5224 0.0137
vn 0.8544 -0.5172 -0.0495
vn 0.8464 -0.5317 0.0292
vn 0.8378 -0.5445 0.0402
vn 0.8464 -0.5317 0.0291
vn 0.9029 -0.3922 -0.1761
vn 0.9354 -0.1451 0.3225
vn 0.9518 -0.1752 0.2518
vn 0.8681 -0.3960 -0.2994
vn 0.8935 -0.4468 0.0445
vn 0.8526 -0.5224 0.0138
vn 0.8855 -0.4610 0.0580
vn 0.8378 -0.5445 0.0403
vn 0.8792 -0.4707 0.0740
vn -0.9262 -0.3771 -0.0000
vn -0.8445 -0.4062 0.3491
vn -0.8488 -0.4150 0.3277
vn -0.9148 -0.4033 0.0213
vn -0.8512 -0.4256 0.3072
vn -0.9058 -0.4213 0.0455
vn 0.9679 -0.2110 0.1365
vn 0.8139 -0.4129 -0.4088
vn 0.8681 -0.3960 -0.2993
vn 0.9518 -0.1752 0.2519
vn -0.8552 -0.5103 0.0912
vn -0.0000 -0.4104 0.9119
vn 0.3672 -0.4933 0.7885
vn 0.3074 -0.4951 0.8127
vn 0.7911 -0.5050 0.3450
vn 0.3609 -0.4927 0.7919
vn 0.8160 -0.5157 0.2611
vn -0.8488 -0.4149 0.3278
vn -0.8047 -0.3568 0.4745
vn -0.8512 -0.4255 0.3072
vn -0.9067 -0.3662 -0.2092
vn -0.9091 -0.3860 -0.1566
vn 0.8414 -0.4527 -0.2952
vn 0.8935 -0.4468 0.0446
vn 0.8855 -0.4611 0.0580
vn 0.8203 -0.4432 -0.3615
vn 0.7981 -0.4329 -0.4190
vn 0.8139 -0.4128 -0.4088
vn -0.9129 -0.4003 -0.0797
vn -0.8564 -0.5063 -0.1017
vn -0.8094 -0.3632 -0.4615
vn -0.8487 -0.4078 -0.3367
vn -0.8284 -0.4068 -0.3850
vn -0.8189 -0.3759 -0.4337
vn -0.8097 -0.4048 -0.4248
vn -0.8267 -0.3860 -0.4093
vn -0.8191 -0.4288 -0.3810
vn -0.6830 -0.3454 -0.6437
vn -0.6896 -0.3388 -0.6401
vn -0.8111 -0.4213 -0.4057
vn -0.6752 -0.3078 -0.6703
vn -0.6768 -0.3085 -0.6685
vn -0.6763 -0.3083 -0.6690
vn -0.6951 -0.3310 -0.6382
vn -0.6767 -0.3085 -0.6685
vn -0.6752 -0.3079 -0.6703
vn -0.8290 -0.4145 -0.3754
vn -0.8909 -0.4454 -0.0891
vn -0.8432 -0.4216 -0.3336
vn -0.8560 -0.4280 -0.2898
vn -0.8044 -0.4125 -0.4276
vn -0.8112 -0.4212 -0.4057
vn 0.7802 -0.5372 0.3204
vn 0.5846 -0.5195 0.6232
vn 0.5486 -0.5298 0.6468
vn 0.7517 -0.5375 0.3821
vn 0.4855 -0.5644 0.6676
vn 0.6975 -0.5448 0.4655
vn 0.7904 -0.5160 0.3301
vn 0.8292 -0.4296 0.3577
vn 0.8370 -0.4278 0.3412
vn 0.7787 -0.4982 0.3813
vn 0.8460 -0.4230 0.3246
vn 0.7682 -0.4806 0.4228
vn -0.8097 -0.4049 -0.4248
vn -0.8284 -0.4069 -0.3850
vn -0.8780 -0.4390 -0.1909
vn -0.8192 -0.4288 -0.3809
vn -0.8112 -0.4212 -0.4056
vn -0.8799 -0.4368 -0.1870
vn -0.8819 -0.4350 -0.1818
vn -0.8799 -0.4369 -0.1870
vn -0.8112 -0.4213 -0.4056
vn 0.7682 -0.4807 0.4228
vn -0.8267 -0.3860 -0.4094
vn 0.8292 -0.4296 0.3576
vn 0.8944 -0.4472 -0.0000
vn 0.7787 -0.4982 0.3812
vn 0.8113 -0.4056 -0.4211
vn 0.8584 -0.4291 -0.2812
vn 0.8565 -0.4283 -0.2880
vn 0.8300 -0.4150 -0.3727
vn -0.8383 -0.4191 0.3486
vn -0.6520 -0.3260 0.6846
vn -0.8400 -0.4200 0.3435
vn -0.8909 -0.4454 0.0891
vn -0.8944 -0.4472 -0.0000
vn 0.8583 -0.4292 -0.2812
vn 0.8565 -0.4282 -0.2881
vn 0.8552 -0.4276 -0.2928
vn 0.8565 -0.4283 -0.2881
vn -0.8423 -0.4212 0.3364
vn -0.8922 -0.4461 -0.0705
vn -0.8924 -0.4462 -0.0670
vn -0.8926 -0.4463 -0.0634
vn 0.8426 -0.4213 0.3356
vn 0.8909 -0.4454 -0.0891
vn 0.8439 -0.4220 0.3312
vn 0.8468 -0.4234 -0.3219
vn 0.8565 -0.4282 -0.2880
vn 0.8459 -0.4230 0.3248
vn 0.8440 -0.4220 0.3312
vn 0.8459 -0.4229 0.3249
vn 0.6376 -0.3188 0.7013
vn -0.8924 -0.4462 -0.0669
vn -0.8423 -0.4212 0.3363
vn 0.8440 -0.4219 0.3312
vn 0.8950 -0.4460 0.0032
vn 0.8948 -0.4465 0.0013
vn 0.8573 -0.4478 0.2540
vn 0.8591 -0.4455 0.2519
vn -0.8094 -0.4215 -0.4089
vn -0.7567 -0.4343 -0.4887
vn -0.7494 -0.4307 -0.5028
vn -0.8055 -0.4242 -0.4137
vn -0.7428 -0.4302 -0.5130
vn -0.8013 -0.4275 -0.4186
vn -0.8055 -0.4242 -0.4138
vn -0.7489 -0.4320 -0.5026
vn -0.9151 -0.3975 0.0678
vn -0.8639 -0.4319 0.2592
vn -0.8763 -0.4201 0.2358
vn -0.9198 -0.3864 0.0680
vn -0.8874 -0.4123 0.2062
vn -0.9263 -0.3705 0.0684
vn -0.9198 -0.3864 0.0681
vn 0.8598 -0.4426 0.2547
vn -0.8085 -0.4125 -0.4197
vn -0.8128 -0.4108 -0.4130
vn 0.6667 -0.3333 -0.6667
vn 0.8633 -0.4316 -0.2614
vn 0.8620 -0.4310 -0.2667
vn 0.8611 -0.4306 -0.2704
vn 0.8621 -0.4310 -0.2667
vn -0.8165 -0.4083 -0.4083
vn -0.8667 -0.4334 0.2471
vn -0.8657 -0.4228 0.2678
vn -0.8627 -0.4143 0.2899
vn -0.7135 -0.3965 -0.5776
vn -0.7428 -0.4301 -0.5131
vn -0.7489 -0.4320 -0.5025
vn -0.7064 -0.4010 -0.5832
vn 0.6509 -0.3906 0.6509
vn 0.6564 -0.3869 0.6476
vn 0.6617 -0.3852 0.6433
vn 0.8611 -0.4306 -0.2703
vn -0.6986 -0.4039 -0.5906
vn -0.7120 -0.3560 0.6052
vn -0.8667 -0.4333 0.2472
vn -0.8657 -0.4228 0.2679
vn -0.8781 -0.4663 0.1071
vn -0.8855 -0.4564 0.0875
vn -0.8917 -0.4459 0.0776
vn -0.8978 -0.4401 -0.0153
vn -0.8963 -0.4435 -0.0069
vn 0.8864 -0.4615 -0.0348
vn 0.8544 -0.5126 -0.0854
vn 0.8641 -0.4999 -0.0591
vn 0.8906 -0.4545 -0.0140
vn 0.8762 -0.4819 -0.0000
vn 0.8882 -0.4520 0.0823
vn 0.8901 -0.4497 0.0738
vn 0.8801 -0.4748 -0.0000
vn 0.8924 -0.4462 0.0665
vn 0.8828 -0.4697 -0.0000
vn 0.8710 -0.4905 -0.0275
vn 0.8387 -0.4194 0.3474
vn 0.6433 -0.3727 0.6688
vn 0.6275 -0.3763 0.6817
vn 0.8299 -0.4102 0.3780
vn 0.6102 -0.3865 0.6916
vn 0.8140 -0.4048 0.4166
vn 0.8890 -0.4550 -0.0512
vn 0.8874 -0.4592 -0.0402
vn -0.8823 -0.4449 -0.1539
vn -0.7748 -0.5028 -0.3833
vn -0.7773 -0.4894 -0.3954
vn -0.8795 -0.4342 -0.1947
vn -0.7764 -0.4799 -0.4085
vn -0.8792 -0.4164 -0.2314
vn -0.8021 -0.5058 -0.3175
vn -0.8101 -0.5164 -0.2777
vn -0.8122 -0.5279 -0.2482
vn -0.8101 -0.5164 -0.2778
vn 0.9174 -0.3831 0.1079
vn 0.9149 -0.3964 0.0765
vn 0.8299 -0.4102 0.3781
vn 0.8682 -0.4916 0.0683
vn 0.8895 -0.4539 -0.0514
vn 0.8535 -0.5190 0.0461
vn 0.8859 -0.4622 -0.0388
vn 0.8575 -0.5145 -0.0000
vn 0.8713 -0.4905 0.0174
vn 0.9124 -0.4077 0.0346
vn 0.8300 -0.4102 0.3780
vn 0.9149 -0.3964 0.0766
vn 0.8829 -0.4697 -0.0000
vn 0.8859 -0.4623 -0.0388
vn 0.2740 -0.3014 0.9133
vn 0.2939 -0.2750 0.9154
vn 0.3054 -0.2596 0.9162
vn 0.2853 -0.2865 0.9146
vn 0.3380 -0.2704 0.9014
vn 0.3147 -0.2983 0.9011
vn 0.3001 -0.3151 0.9003
vn 0.3233 -0.2881 0.9014
vn 0.8882 -0.4520 0.0822
vn -0.7949 -0.5167 -0.3180
vn -0.8938 -0.4400 -0.0872
vn -0.9013 -0.4283 -0.0642
vn -0.8214 -0.4984 -0.2775
vn -0.7773 -0.4893 -0.3954
vn -0.8975 -0.4407 -0.0152
vn -0.9110 -0.4100 -0.0446
vn -0.8938 -0.4400 -0.0873
vn -0.8963 -0.4435 -0.0068
vn -0.9014 -0.4283 -0.0642
vn -0.9110 -0.4100 -0.0445
vn -0.8448 -0.4867 -0.2223
vn -0.8213 -0.4984 -0.2775
vn 0.8238 -0.4215 0.3791
vn 0.8313 -0.4091 0.3764
vn 0.8356 -0.4133 0.3619
vn 0.8095 -0.4096 0.4206
vn 0.7925 -0.3963 0.4636
vn -0.8529 -0.5068 0.1254
vn -0.8904 -0.4542 0.0295
vn -0.8858 -0.4615 0.0496
vn -0.8385 -0.5176 0.1701
vn -0.8803 -0.4671 0.0833
vn -0.8206 -0.5334 0.2052
vn -0.8858 -0.4615 0.0497
vn 0.1303 -0.4778 0.8687
vn 0.3315 -0.4886 0.8070
vn 0.3755 -0.4842 0.7903
vn 0.1334 -0.4760 0.8693
vn 0.8182 -0.4574 0.3483
vn 0.8387 -0.4193 0.3474
vn 0.8206 -0.4493 0.3533
vn 0.4176 -0.4803 0.7714
vn 0.1365 -0.4751 0.8693
vn 0.1335 -0.4761 0.8692
vn 0.8330 -0.4054 0.3765
vn 0.8215 -0.4418 0.3605
vn -0.8116 -0.4778 -0.3362
vn -0.6804 -0.3564 -0.6404
vn -0.7066 -0.3454 -0.6175
vn -0.8182 -0.4663 -0.3364
vn 0.8420 -0.4630 -0.2769
vn 0.8238 -0.4215 0.3790
vn 0.8389 -0.4590 -0.2925
vn 0.6210 -0.3639 -0.6942
vn 0.8420 -0.4630 -0.2770
vn 0.6155 -0.3641 -0.6990
vn 0.8352 -0.4552 -0.3085
vn 0.6106 -0.3663 -0.7021
vn 0.8389 -0.4590 -0.2926
vn -0.7388 -0.3187 -0.5938
vn -0.8259 -0.4524 -0.3365
vn -0.7066 -0.3455 -0.6176
vn 0.3316 -0.4886 0.8070
vn 0.8205 -0.4493 0.3533
vn 0.4176 -0.4803 0.7713
vn -0.8182 -0.4663 -0.3365
vn -0.8181 -0.4663 -0.3365
vn 0.1568 -0.4417 -0.8834
vn -0.0469 -0.4443 -0.8946
vn -0.0490 -0.4454 -0.8940
vn 0.1472 -0.4423 -0.8847
vn 0.9003 -0.4352 -0.0000
vn 0.8880 -0.4387 0.1379
vn 0.8864 -0.4402 0.1431
vn 0.9032 -0.4289 0.0160
vn 0.8846 -0.4423 0.1475
vn 0.9042 -0.4257 0.0346
vn -0.4628 -0.4905 -0.7383
vn -0.5882 -0.4186 -0.6920
vn -0.6012 -0.4322 -0.6721
vn -0.4150 -0.4860 -0.7691
vn -0.0400 -0.4578 -0.8882
vn 0.0042 -0.4472 -0.8944
vn -0.0511 -0.4466 -0.8933
vn 0.1375 -0.4430 -0.8859
vn 0.9042 -0.4256 0.0345
vn 0.9299 -0.3639 -0.0539
vn 0.9238 -0.3750 -0.0773
vn -0.0470 -0.4443 -0.8946
vn -0.4758 -0.4270 -0.7689
vn -0.4338 -0.4274 -0.7932
vn 0.9174 -0.3832 -0.1075
vn -0.3985 -0.4279 -0.8112
vn -0.8193 -0.4527 -0.3519
vn -0.8944 -0.4472 -0.0100
vn -0.8941 -0.4470 -0.0276
vn -0.8030 -0.4489 -0.3921
vn -0.8935 -0.4468 -0.0450
vn -0.7849 -0.4456 -0.4306
vn -0.0299 -0.4607 -0.8871
vn -0.4758 -0.4270 -0.7690
vn -0.6169 -0.4407 -0.6521
vn -0.4198 -0.5035 -0.7552
vn -0.7849 -0.4455 -0.4306
vn -0.0298 -0.4607 -0.8871
vn -0.4628 -0.4905 -0.7384
vn -0.0399 -0.4578 -0.8882
vn 0.0044 -0.4489 -0.8936
vn 0.6615 -0.4447 0.6039
vn 0.3742 -0.5009 0.7805
vn 0.3526 -0.4943 0.7945
vn 0.6471 -0.4438 0.6199
vn -0.0193 -0.5285 0.8487
vn 0.3485 -0.4344 0.8306
vn 0.3608 -0.4251 0.8301
vn 0.0038 -0.5161 0.8565
vn 0.0293 -0.5006 0.8652
vn 0.0695 -0.5530 0.8303
vn 0.0289 -0.5630 0.8260
vn 0.6337 -0.4436 0.6337
vn 0.6682 -0.3884 0.6345
vn 0.6849 -0.3806 0.6214
vn 0.3972 -0.4061 0.8230
vn 0.3679 -0.4159 0.8317
vn 0.3816 -0.4100 0.8284
vn 0.3742 -0.5008 0.7805
vn 0.3526 -0.4944 0.7945
vn -0.0000 -0.5734 0.8192
vn 0.3679 -0.4158 0.8317
vn 0.3229 -0.4888 0.8104
vn 0.3527 -0.4943 0.7945
vn 0.6988 -0.3713 0.6114
vn 0.6615 -0.4446 0.6039
vn 0.6849 -0.3805 0.6214
vn 0.3527 -0.4944 0.7945
vn 0.3484 -0.4330 0.8314
vn 0.3608 -0.4252 0.8301
vn -0.8949 -0.4462 -0.0031
vn -0.8708 -0.4299 -0.2385
vn -0.8794 -0.4350 -0.1933
vn -0.8947 -0.4466 -0.0014
vn -0.8955 -0.4450 -0.0014
vn -0.8783 -0.4373 -0.1933
vn 0.3342 -0.6645 -0.6684
vn 0.1414 -0.4922 -0.8589
vn 0.0676 -0.4743 -0.8778
vn 0.2487 -0.6355 -0.7310
vn 0.5712 -0.5800 0.5809
vn 0.5751 -0.5856 0.5713
vn 0.5744 -0.5854 0.5721
vn 0.5649 -0.5812 0.5858
vn 0.5694 -0.5872 0.5752
vn 0.5612 -0.5798 0.5907
vn 0.5745 -0.5854 0.5721
vn -0.0000 -0.4395 -0.8982
vn 0.1147 -0.6130 -0.7817
vn 0.2487 -0.6355 -0.7309
vn -0.3851 -0.3799 -0.8411
vn -0.3446 -0.3998 -0.8493
vn 1.0000 -0.0000 -0.0000
vn 0.7922 -0.4337 0.4293
vn 0.8520 -0.3715 0.3689
vn -0.7037 -0.3700 -0.6066
vn -0.6743 -0.2221 -0.7042
vn -0.6813 -0.2321 -0.6942
vn -0.7381 -0.3783 -0.5587
vn 0.9270 -0.2652 0.2652
vn 0.8520 -0.3714 0.3690
vn 0.5744 -0.5854 0.5722
vn -0.7020 -0.2285 -0.6745
vn -0.7567 -0.3923 -0.5230
vn -0.7381 -0.3782 -0.5587
vn 0.7922 -0.4338 0.4292
vn 0.5694 -0.5872 0.5753
vn 0.8520 -0.3714 0.3689
vn -0.6743 -0.2222 -0.7042
vn -0.2931 -0.4180 -0.8599
vn -0.3446 -0.3998 -0.8494
vn -0.8165 -0.4021 -0.4144
vn -0.2931 -0.4202 -0.8588
vn 0.5791 -0.5285 0.6207
vn 0.5686 -0.4672 0.6771
vn 0.5939 -0.4509 0.6663
vn 0.5648 -0.5383 0.6255
vn -0.6635 -0.4258 -0.6152
vn -0.6183 -0.4579 -0.6388
vn -0.6157 -0.4553 -0.6431
vn -0.6778 -0.4156 -0.6065
vn -0.6494 -0.4323 -0.6256
vn -0.6196 -0.4545 -0.6400
vn 0.5893 -0.5476 0.5941
vn 0.5720 -0.5579 0.6012
vn 0.5934 -0.5225 0.6123
vn 0.5893 -0.5476 0.5940
vn 0.2300 -0.6818 0.6945
vn -0.0113 -0.6898 0.7239
vn -0.0279 -0.6920 0.7213
vn 0.2962 -0.6692 0.6815
vn -0.0113 -0.6899 0.7239
vn 0.6178 -0.4404 0.6515
vn 0.2300 -0.6817 0.6945
vn 0.5448 -0.5738 0.6115
vn 0.1608 -0.6945 0.7013
vn 0.5446 -0.5738 0.6117
vn 0.5721 -0.5579 0.6012
vn 0.6059 -0.3511 0.7138
vn 0.6386 -0.3475 0.6867
vn 0.6060 -0.3511 0.7138
vn -0.6329 -0.4001 -0.6629
vn -0.6196 -0.4544 -0.6400
vn -0.6158 -0.4553 -0.6431
vn -0.6509 -0.3906 -0.6509
vn -0.6329 -0.4000 -0.6629
vn -0.6107 -0.4061 -0.6798
vn -0.6183 -0.4579 -0.6387
vn 0.6667 -0.3333 0.6667
vn -0.0279 -0.6921 0.7213
vn -0.0447 -0.6972 0.7154
vn -0.0280 -0.6921 0.7213
vt 0.773438 0.714844
vt 0.773438 0.712891
vt 0.781250 0.712891
vt 0.781250 0.714844
s 0
usemtl gpaque.001
f 4/1/1 1/2/2 2/3/3 3/4/4
f 6/1/5 5/2/6 3/3/7 2/4/8
f 10/1/9 7/2/10 8/3/11 9/4/12
f 12/1/13 11/2/14 9/3/12 8/4/11
f 1/1/2 13/2/15 14/3/16 2/4/8
f 15/1/17 6/2/18 2/3/8 14/4/16
f 19/1/19 16/2/20 17/3/21 18/4/22
f 7/1/23 20/2/24 21/3/25 8/4/26
f 22/1/27 12/2/13 8/3/26 21/4/25
f 25/1/28 23/2/29 17/3/21 24/4/30
f 16/1/20 26/2/31 24/3/30 17/4/32
f 27/1/33 10/2/9 9/3/34 18/4/35
f 23/1/36 27/2/33 18/3/35 17/4/37
f 11/1/14 19/2/38 18/3/22 9/4/34
f 31/1/39 28/2/40 29/3/41 30/4/42
f 33/1/43 32/2/44 30/3/42 29/4/45
f 37/1/46 34/2/47 35/3/48 36/4/49
f 39/1/50 38/2/51 36/3/49 35/4/48
f 43/1/52 40/2/53 41/3/54 42/4/55
f 34/1/56 44/2/57 45/3/58 35/4/48
f 46/1/59 39/2/50 35/3/48 45/4/58
f 50/1/60 47/2/61 48/3/62 49/4/63
f 52/1/64 51/2/65 49/3/63 48/4/62
f 54/1/66 53/2/67 42/3/68 41/4/69
f 56/1/70 50/2/60 49/3/71 55/4/72
f 51/1/65 57/2/73 55/3/74 49/4/63
f 61/1/75 58/2/76 59/3/77 60/4/78
f 63/1/79 56/2/80 55/3/74 62/4/81
f 57/1/82 64/2/83 62/3/81 55/4/74
f 68/1/84 65/2/85 66/3/86 67/4/87
f 70/1/88 69/2/89 67/3/87 66/4/86
f 72/1/90 71/2/91 60/3/92 59/4/93
f 44/1/94 68/2/84 67/3/87 45/4/58
f 69/1/89 46/2/59 45/3/58 67/4/87
f 58/1/95 43/2/95 42/3/95 59/4/95
f 53/1/95 72/2/95 59/3/95 42/4/95
f 47/1/61 31/2/96 30/3/97 48/4/98
f 32/1/99 52/2/100 48/3/62 30/4/97
f 65/1/85 54/2/66 41/3/54 66/4/101
f 40/1/102 70/2/103 66/3/101 41/4/54
f 38/1/51 73/2/104 74/3/105 36/4/49
f 76/1/106 63/2/107 62/3/108 75/4/109
f 64/1/83 77/2/110 75/3/109 62/4/108
f 71/1/111 76/2/106 75/3/109 60/4/92
f 77/1/110 61/2/75 60/3/92 75/4/109
f 78/1/112 37/2/46 36/3/113 74/4/105
f 82/1/114 79/2/115 80/3/116 81/4/117
f 84/1/118 83/2/119 81/3/117 80/4/116
f 88/1/120 85/2/121 86/3/122 87/4/123
f 85/1/121 89/2/124 90/3/125 86/4/122
f 92/1/126 91/2/127 86/3/122 90/4/128
f 89/1/129 82/2/114 81/3/117 90/4/128
f 96/1/130 93/2/131 94/3/131 95/4/132
f 98/1/131 97/2/133 95/3/132 94/4/131
f 91/1/127 99/2/134 87/3/135 86/4/122
f 103/1/136 100/2/137 101/3/138 102/4/139
f 105/1/140 104/2/141 102/3/139 101/4/138
f 109/1/142 106/2/143 107/3/144 108/4/145
f 111/1/146 110/2/147 108/3/145 107/4/144
f 97/1/133 84/2/148 80/3/116 95/4/132
f 79/1/115 96/2/130 95/3/132 80/4/149
f 113/1/150 88/2/151 87/3/152 112/4/153
f 99/1/134 114/2/154 112/3/155 87/4/156
f 110/1/157 103/2/136 102/3/139 108/4/145
f 83/1/158 92/2/126 90/3/128 81/4/117
f 106/1/159 115/2/160 116/3/160 107/4/144
f 104/1/141 109/2/142 108/3/161 102/4/139
f 117/1/160 111/2/146 107/3/144 116/4/160
f 121/1/162 118/2/163 119/3/164 120/4/165
f 125/1/166 122/2/167 123/3/167 124/4/168
f 129/1/169 126/2/170 127/3/170 128/4/169
f 118/1/171 130/2/160 131/3/160 119/4/172
f 133/1/160 132/2/173 119/3/174 131/4/160
f 135/1/167 134/2/175 124/3/168 123/4/167
f 137/1/170 136/2/169 128/3/169 127/4/170
f 141/1/170 138/2/176 139/3/177 140/4/170
f 143/1/178 142/2/170 140/3/170 139/4/177
f 147/1/179 144/2/180 145/3/180 146/4/181
f 130/1/160 148/2/180 145/3/180 131/4/160
f 144/1/180 133/2/160 131/3/160 145/4/180
f 136/1/169 141/2/170 140/3/170 128/4/169
f 142/1/170 129/2/169 128/3/169 140/4/170
f 150/1/180 121/2/162 120/3/165 149/4/180
f 152/1/182 151/2/180 149/3/180 120/4/165
f 132/1/173 152/2/182 120/3/165 119/4/183
f 148/1/180 153/2/184 146/3/185 145/4/180
f 153/1/186 154/2/187 155/3/187 146/4/185
f 138/1/176 125/2/166 124/3/168 139/4/188
f 126/1/170 156/2/131 157/3/131 127/4/170
f 158/1/131 137/2/170 127/3/170 157/4/131
f 134/1/189 143/2/178 139/3/188 124/4/168
f 159/1/187 147/2/179 146/3/190 155/4/187
f 163/1/160 160/2/191 161/3/192 162/4/160
f 165/1/160 164/2/160 162/3/160 161/4/192
f 167/1/193 165/2/160 161/3/192 166/4/194
f 171/1/195 168/2/196 169/3/197 170/4/198
f 173/1/199 172/2/200 170/3/201 169/4/202
f 177/1/203 174/2/204 175/3/205 176/4/206
f 179/1/207 178/2/208 176/3/209 175/4/205
f 160/1/191 180/2/210 166/3/194 161/4/192
f 172/1/200 181/2/211 182/3/212 170/4/198
f 186/1/213 183/2/214 184/3/215 185/4/213
f 188/1/216 187/2/213 185/3/213 184/4/217
f 189/1/218 171/2/195 170/3/201 182/4/212
f 191/1/219 177/2/203 176/3/209 190/4/220
f 178/1/208 192/2/221 190/3/220 176/4/209
f 194/1/222 173/2/223 169/3/224 193/4/225
f 196/1/226 167/2/193 166/3/194 195/4/227
f 180/1/210 197/2/228 195/3/227 166/4/194
f 183/1/214 198/2/160 199/3/160 184/4/215
f 200/1/160 188/2/229 184/3/215 199/4/160
f 168/1/196 201/2/230 193/3/225 169/4/224
f 164/1/160 200/2/160 199/3/160 162/4/160
f 181/1/231 191/2/232 190/3/233 182/4/231
f 192/1/221 189/2/231 182/3/231 190/4/233
f 198/1/160 163/2/160 162/3/160 199/4/160
f 205/1/170 202/2/234 203/3/235 204/4/170
f 207/1/236 206/2/170 204/3/170 203/4/235
f 206/1/170 208/2/237 209/3/238 204/4/170
f 210/1/170 205/2/170 204/3/170 209/4/238
f 214/1/239 211/2/240 212/3/241 213/4/242
f 218/1/243 215/2/244 216/3/245 217/4/246
f 220/1/247 219/2/248 217/3/246 216/4/245
f 222/1/249 221/2/160 213/3/242 212/4/241
f 226/1/250 223/2/251 224/3/252 225/4/253
f 228/1/254 227/2/255 225/3/253 224/4/252
f 230/1/256 218/2/243 217/3/246 229/4/257
f 234/1/258 231/2/259 232/3/260 233/4/261
f 236/1/262 235/2/263 233/3/261 232/4/260
f 238/1/264 207/2/236 203/3/235 237/4/265
f 202/1/234 239/2/266 237/3/267 203/4/235
f 227/1/255 240/2/268 241/3/269 225/4/270
f 243/1/271 230/2/272 229/3/257 242/4/273
f 245/1/274 244/2/275 242/3/276 229/4/257
f 246/1/277 226/2/250 225/3/278 241/4/279
f 219/1/280 245/2/281 229/3/257 217/4/246
f 244/1/282 246/2/283 241/3/284 242/4/285
f 240/1/286 243/2/287 242/3/288 241/4/289
f 221/1/160 220/2/247 216/3/245 213/4/242
f 215/1/290 214/2/239 213/3/242 216/4/245
f 250/1/291 247/2/292 248/3/293 249/4/294
f 231/1/259 238/2/264 237/3/265 232/4/260
f 239/1/266 236/2/262 232/3/295 237/4/265
f 208/1/296 251/2/297 248/3/293 209/4/238
f 247/1/298 210/2/170 209/3/299 248/4/300
f 251/1/301 252/2/302 249/3/303 248/4/293
f 256/1/304 253/2/305 254/3/306 255/4/307
f 258/1/250 257/2/308 255/3/307 254/4/306
f 262/1/309 259/2/310 260/3/311 261/4/312
f 264/1/313 263/2/314 261/3/312 260/4/315
f 268/1/316 265/2/317 266/3/318 267/4/319
f 270/1/320 258/2/321 254/3/306 269/4/322
f 272/1/323 271/2/324 267/3/325 266/4/318
f 253/1/326 273/2/327 269/3/322 254/4/306
f 277/1/328 274/2/329 275/3/330 276/4/331
f 279/1/332 256/2/333 255/3/307 278/4/334
f 281/1/335 279/2/336 278/3/334 280/4/337
f 283/1/338 282/2/339 280/3/337 278/4/340
f 285/1/341 284/2/342 276/3/331 275/4/343
f 265/1/344 270/2/320 269/3/345 266/4/318
f 257/1/308 283/2/338 278/3/334 255/4/307
f 273/1/327 272/2/346 266/3/318 269/4/345
f 259/1/310 277/2/328 276/3/347 260/4/311
f 284/1/342 264/2/313 260/3/311 276/4/348
f 289/1/349 286/2/350 287/3/351 288/4/352
f 293/1/353 290/2/354 291/3/355 292/4/356
f 295/1/357 294/2/358 292/3/356 291/4/355
f 299/1/359 296/2/360 297/3/361 298/4/362
f 301/1/363 289/2/349 288/3/352 300/4/364
f 303/1/365 302/2/366 288/3/352 287/4/351
f 294/1/367 304/2/368 305/3/369 292/4/356
f 286/1/370 306/2/371 307/3/372 287/4/351
f 308/1/373 293/2/353 292/3/356 305/4/369
f 309/1/374 303/2/365 287/3/351 307/4/372
f 313/1/375 310/2/376 311/3/377 312/4/378
f 315/1/379 314/2/380 312/3/378 311/4/377
f 302/1/366 316/2/381 300/3/364 288/4/352
f 306/1/382 313/2/375 312/3/378 307/4/372
f 318/1/383 317/2/384 298/3/362 297/4/361
f 314/1/385 309/2/374 307/3/372 312/4/378
f 316/1/386 299/2/387 298/3/362 300/4/364
f 320/1/169 315/2/379 311/3/377 319/4/169
f 317/1/384 301/2/388 300/3/389 298/4/362
f 310/1/376 321/2/169 319/3/169 311/4/377
f 325/1/390 322/2/391 323/3/392 324/4/393
f 329/1/394 326/2/395 327/3/396 328/4/397
f 332/1/398 330/2/399 331/3/400 328/4/397
f 335/1/401 333/2/402 334/3/403 324/4/393
f 338/1/404 336/2/405 327/3/396 337/4/406
f 322/1/407 338/2/404 337/3/406 323/4/408
f 339/1/409 329/2/394 328/3/397 331/4/400
f 336/1/405 332/2/398 328/3/397 327/4/396
f 341/1/410 340/2/411 323/3/412 337/4/406
f 342/1/413 325/2/414 324/3/393 334/4/415
f 340/1/411 335/2/401 324/3/393 323/4/416
f 326/1/417 341/2/410 337/3/406 327/4/418
f 346/1/419 343/2/420 344/3/421 345/4/422
f 348/1/423 347/2/170 345/3/422 344/4/424
f 352/1/425 349/2/426 350/3/427 351/4/428
f 356/1/429 353/2/430 354/3/431 355/4/432
f 358/1/433 357/2/434 355/3/432 354/4/435
f 359/1/436 348/2/437 351/3/438 350/4/427
f 349/1/426 360/2/436 361/3/436 350/4/427
f 362/1/436 359/2/436 350/3/427 361/4/436
f 360/1/436 363/2/439 364/3/440 361/4/436
f 368/1/441 365/2/441 366/3/442 367/4/443
f 371/1/444 369/2/445 370/3/446 368/4/447
f 353/1/430 372/2/448 367/3/449 354/4/450
f 373/1/451 365/2/452 368/3/453 370/4/446
f 366/1/454 358/2/455 354/3/435 367/4/456
f 369/1/457 374/2/458 364/3/459 370/4/446
f 343/1/420 352/2/460 351/3/460 344/4/421
f 348/1/460 344/2/421 351/4/460
f 363/1/439 373/2/451 370/3/446 364/4/440
f 367/1/449 372/2/448 371/3/441 368/4/441
f 374/1/461 362/2/436 361/3/436 364/4/440
f 377/4/462 375/2/463 376/3/464
f 378/1/465 375/2/463 377/4/462
f 381/4/466 379/2/467 380/3/468
f 382/1/469 379/2/467 381/4/466
f 380/4/468 383/2/470 381/3/466
f 384/1/471 383/2/470 380/4/468
f 377/4/462 385/2/472 386/3/473
f 387/1/474 385/2/475 377/4/462
f 390/4/476 388/2/477 389/3/478
f 391/1/479 388/2/480 390/4/476
f 376/4/464 387/2/474 377/3/462
f 392/1/481 387/2/474 376/4/464
f 390/4/482 393/2/483 386/3/473
f 394/1/484 393/2/485 390/4/476
f 386/4/486 391/2/479 390/3/476
f 385/1/475 391/2/479 386/4/473
f 376/4/464 395/2/487 396/3/488
f 375/1/463 395/2/489 376/4/464
f 397/4/490 384/2/491 380/3/492
f 398/1/493 384/2/491 397/4/494
f 380/4/468 399/2/495 397/3/490
f 379/1/496 399/2/495 380/4/468
f 386/4/473 378/2/465 377/3/462
f 393/1/485 378/2/465 386/4/473
f 396/4/488 392/2/481 376/3/464
f 400/1/497 392/2/481 396/4/488
f 389/4/498 394/2/484 390/3/476
f 401/1/499 394/2/484 389/4/500
