{
	"asset":{
		"generator":"Khronos glTF Blender I/O v5.0.21",
		"version":"2.0"
	},
	"scene":0,
	"scenes":[
		{
			"extras":{
				"vs":{
					"export_list":[
						{
							"name":"Collection.dmx",
							"collection":{
								"name":"Collection",
								"type":"Collection"
							},
							"ob_type":"COLLECTION",
							"icon":"GROUP"
						}
					]
				},
				"fast64":{
					"settings":{
						"internal_game_update_ver":1
					},
					"sm64":{
						"address_converter":{
							"version":1
						},
						"combined_export":{},
						"version":4
					},
					"renderSettings":{
						"sm64Area":{}
					}
				},
				"uuid":"6ae21771-18ea-457f-bbcf-46eea202b481",
				"assets reported":{},
				"ootPreviewSettingsProperty":{
					"ootCSPreviewCSObj":{}
				}
			},
			"name":"Scene",
			"nodes":[
				19
			]
		}
	],
	"nodes":[
		{
			"name":"Right ankle",
			"rotation":[
				-5.1078806961868395e-08,
				1.1176478631469422e-09,
				0.6632372736930847,
				0.7484092712402344
			],
			"scale":[
				0.9999999403953552,
				0.9999999403953552,
				1
			],
			"translation":[
				-6.501132965297529e-10,
				0.24870596826076508,
				1.0787632120923263e-08
			]
		},
		{
			"children":[
				0
			],
			"name":"Right knee",
			"rotation":[
				1.6958682236278833e-09,
				1.5898381278134366e-08,
				-0.028446432203054428,
				0.9995953440666199
			],
			"translation":[
				1.147226758035913e-10,
				0.2193630337715149,
				9.273719014935011e-10
			]
		},
		{
			"children":[
				1
			],
			"name":"Right leg",
			"rotation":[
				0.7071067690849304,
				0,
				-0.7071067690849304,
				0
			],
			"scale":[
				1,
				0.9999999403953552,
				1
			],
			"translation":[
				-0.08260016143321991,
				0.05994385480880737,
				0
			]
		},
		{
			"name":"Left ankle",
			"rotation":[
				-5.1078806961868395e-08,
				-1.1176478631469422e-09,
				-0.6632372736930847,
				0.7484092712402344
			],
			"scale":[
				0.9999999403953552,
				0.9999999403953552,
				1
			],
			"translation":[
				6.501132965297529e-10,
				0.24870596826076508,
				1.0787632120923263e-08
			]
		},
		{
			"children":[
				3
			],
			"name":"Left knee",
			"rotation":[
				1.6958682236278833e-09,
				-1.5898381278134366e-08,
				0.028446432203054428,
				0.9995953440666199
			],
			"translation":[
				-1.147226758035913e-10,
				0.2193630337715149,
				9.273719014935011e-10
			]
		},
		{
			"children":[
				4
			],
			"name":"Left leg",
			"rotation":[
				0.7071067690849304,
				0,
				0.7071067690849304,
				0
			],
			"scale":[
				1,
				0.9999999403953552,
				1
			],
			"translation":[
				0.08260016143321991,
				0.05994385480880737,
				0
			]
		},
		{
			"name":"Right wrist",
			"rotation":[
				-1.761921009081428e-17,
				6.617444900424222e-24,
				7.32769812032295e-15,
				1
			],
			"translation":[
				2.1979155995222044e-10,
				0.19329950213432312,
				5.047843920635842e-09
			]
		},
		{
			"children":[
				6
			],
			"name":"Right elbow",
			"rotation":[
				0.01017606258392334,
				-2.999431814032505e-08,
				-4.945105303022501e-08,
				0.999948263168335
			],
			"scale":[
				1,
				0.9999999403953552,
				0.9999999403953552
			],
			"translation":[
				3.820872507276363e-09,
				0.19631007313728333,
				-7.570044147087174e-08
			]
		},
		{
			"children":[
				7
			],
			"name":"Right arm",
			"rotation":[
				-0.5050621628761292,
				0.49488621950149536,
				0.5050621032714844,
				0.49488601088523865
			],
			"scale":[
				1.0000001192092896,
				1,
				1
			],
			"translation":[
				-0.10792561620473862,
				0.26821309328079224,
				3.725290298461914e-08
			]
		},
		{
			"name":"Left wrist",
			"rotation":[
				-1.761921009081428e-17,
				-6.617444900424222e-24,
				-7.32769812032295e-15,
				1
			],
			"translation":[
				-2.1979155995222044e-10,
				0.19329950213432312,
				5.047843920635842e-09
			]
		},
		{
			"children":[
				9
			],
			"name":"Left elbow",
			"rotation":[
				0.01017606258392334,
				2.999431814032505e-08,
				4.945105303022501e-08,
				0.999948263168335
			],
			"scale":[
				1,
				0.9999999403953552,
				0.9999999403953552
			],
			"translation":[
				-3.820872507276363e-09,
				0.19631007313728333,
				-7.570044147087174e-08
			]
		},
		{
			"children":[
				10
			],
			"name":"Left arm",
			"rotation":[
				-0.5050621628761292,
				-0.49488621950149536,
				-0.5050621032714844,
				0.49488601088523865
			],
			"scale":[
				1.0000001192092896,
				1,
				1
			],
			"translation":[
				0.10792561620473862,
				0.26821309328079224,
				3.725290298461914e-08
			]
		},
		{
			"extras":{
				"fast64":{
					"sm64":{}
				}
			},
			"name":"Right ear",
			"rotation":[
				0.1511072814464569,
				0.03697202354669571,
				0.23180857300758362,
				0.9602419137954712
			],
			"scale":[
				0.9999999403953552,
				1,
				1
			],
			"translation":[
				-0.23214583098888397,
				0.4521546959877014,
				0.12618395686149597
			]
		},
		{
			"name":"Left ear",
			"rotation":[
				-1.0711251263728627e-07,
				1.1916427844482769e-08,
				-0.23711904883384705,
				0.9714806079864502
			],
			"scale":[
				0.9999999403953552,
				1,
				1
			],
			"translation":[
				0.2294701635837555,
				0.4480777382850647,
				6.146728992462158e-08
			]
		},
		{
			"children":[
				12,
				13
			],
			"name":"Head",
			"translation":[
				0,
				0.32323312759399414,
				0
			]
		},
		{
			"name":"Tail",
			"rotation":[
				-0.8443601727485657,
				1.6102904979071081e-16,
				1.610289836162618e-16,
				0.5357760190963745
			],
			"scale":[
				1,
				1,
				1.0000001192092896
			],
			"translation":[
				8.291104249221139e-18,
				0.05325537919998169,
				-0.08154202252626419
			]
		},
		{
			"children":[
				2,
				5,
				8,
				11,
				14,
				15
			],
			"name":"Spine",
			"translation":[
				0,
				0.5639497637748718,
				-0.02121579647064209
			]
		},
		{
			"children":[
				16
			],
			"name":"Root"
		},
		{
			"extras":{
				"fast64":{
					"sm64":{
						"geo_asm":{},
						"game_object":{},
						"version":3
					}
				},
				"oas_props":{}
			},
			"mesh":0,
			"name":"Body",
			"skin":0
		},
		{
			"children":[
				18,
				17
			],
			"extras":{
				"oas_props":{},
				"CUSTOM":{
					"shape_key_order":[]
				}
			},
			"name":"Armature"
		}
	],
	"materials":[
		{
			"doubleSided":true,
			"extras":{
				"mmd_material":{}
			},
			"name":"SonicBase"
		}
	],
	"meshes":[
		{
			"name":"Cube.007",
			"primitives":[
				{
					"attributes":{
						"POSITION":0,
						"NORMAL":1,
						"TEXCOORD_0":2,
						"TANGENT":3,
						"JOINTS_0":4,
						"WEIGHTS_0":5
					},
					"indices":6,
					"material":0
				}
			]
		}
	],
	"skins":[
		{
			"inverseBindMatrices":7,
			"joints":[
				17,
				16,
				2,
				1,
				0,
				5,
				4,
				3,
				8,
				7,
				6,
				11,
				10,
				9,
				14,
				12,
				13,
				15
			],
			"name":"Armature"
		}
	],
	"accessors":[
		{
			"bufferView":0,
			"componentType":5126,
			"count":558,
			"max":[
				0.7374868988990784,
				1.5822581052780151,
				0.46526384353637695
			],
			"min":[
				-0.7374868988990784,
				0.002993941307067871,
				-0.6101856827735901
			],
			"type":"VEC3"
		},
		{
			"bufferView":1,
			"componentType":5126,
			"count":558,
			"type":"VEC3"
		},
		{
			"bufferView":2,
			"componentType":5126,
			"count":558,
			"type":"VEC2"
		},
		{
			"bufferView":3,
			"componentType":5126,
			"count":558,
			"type":"VEC4"
		},
		{
			"bufferView":4,
			"componentType":5121,
			"count":558,
			"type":"VEC4"
		},
		{
			"bufferView":5,
			"componentType":5126,
			"count":558,
			"type":"VEC4"
		},
		{
			"bufferView":6,
			"componentType":5123,
			"count":1422,
			"type":"SCALAR"
		},
		{
			"bufferView":7,
			"componentType":5126,
			"count":18,
			"type":"MAT4"
		}
	],
	"bufferViews":[
		{
			"buffer":0,
			"byteLength":6696,
			"byteOffset":0,
			"target":34962
		},
		{
			"buffer":0,
			"byteLength":6696,
			"byteOffset":6696,
			"target":34962
		},
		{
			"buffer":0,
			"byteLength":4464,
			"byteOffset":13392,
			"target":34962
		},
		{
			"buffer":0,
			"byteLength":8928,
			"byteOffset":17856,
			"target":34962
		},
		{
			"buffer":0,
			"byteLength":2232,
			"byteOffset":26784,
			"target":34962
		},
		{
			"buffer":0,
			"byteLength":8928,
			"byteOffset":29016,
			"target":34962
		},
		{
			"buffer":0,
			"byteLength":2844,
			"byteOffset":37944,
			"target":34963
		},
		{
			"buffer":0,
			"byteLength":1152,
			"byteOffset":40788
		}
	],
	"buffers":[
		{
			"byteLength":41940,
			"uri":"Sonic%283%29-e8edf57dba48fb9994a422dcdd79dc2f.bin"
		}
	]
}
